<?xml version="1.0" encoding="UTF-8" standalone="no"?>
<svg
   xmlns:dc="http://purl.org/dc/elements/1.1/"
   xmlns:cc="http://creativecommons.org/ns#"
   xmlns:rdf="http://www.w3.org/1999/02/22-rdf-syntax-ns#"
   xmlns:svg="http://www.w3.org/2000/svg"
   xmlns="http://www.w3.org/2000/svg"
   viewBox="0 0 1122.52 793.70667"
   height="793.70667"
   width="1122.52"
   xml:space="preserve"
   id="svg2"
   version="1.1"><metadata
     id="metadata8"><rdf:RDF><cc:Work
         rdf:about=""><dc:format>image/svg+xml</dc:format><dc:type
           rdf:resource="http://purl.org/dc/dcmitype/StillImage" /></cc:Work></rdf:RDF></metadata><defs
     id="defs6"><clipPath
       id="clipPath22"
       clipPathUnits="userSpaceOnUse"><path
         id="path20"
         d="M 0,595.28 H 841.89 V 0 H 0 Z" /></clipPath></defs><g
     transform="matrix(1.3333333,0,0,-1.3333333,0,793.70667)"
     id="g10"><g
       transform="translate(714.0488,363.2729)"
       id="g12"><path
         id="path14"
         style="fill:#452700;fill-opacity:1;fill-rule:nonzero;stroke:none"
         d="M 0,0 18.606,4.899 53.669,-0.978 32.514,-8.421 Z" /></g><g
       id="g16"><g
         clip-path="url(#clipPath22)"
         id="g18"><g
           transform="translate(734.7305,363.9751)"
           id="g24"><path
             id="path26"
             style="fill:#316d3d;fill-opacity:1;fill-rule:nonzero;stroke:none"
             d="M 0,0 C -2.327,5.225 -0.284,13.768 2.998,18.197 2.241,15.062 2.259,11.468 2.637,8.196 2.877,9.962 3.587,12.51 5.259,13.393 5.203,11.782 4.656,10.052 4.871,8.412 6.354,12.544 9.769,17.509 13.715,19.826 10.949,15.047 9.3,10.232 7.814,5.029 9.276,6.975 10.834,8.608 12.579,10.286 11.707,8.618 10.455,7.106 10.054,5.288 11.162,6.02 11.65,7.287 12.909,7.928 11.291,4.651 10.455,0.813 8.65,-2.345 7.708,-3.992 7.402,-3.844 5.565,-4.489 4.25,-4.949 2.99,-5.54 1.622,-5.931" /></g><g
           transform="translate(706.6973,377.0454)"
           id="g28"><path
             id="path30"
             style="fill:#7a0000;fill-opacity:1;fill-rule:nonzero;stroke:none"
             d="m 0,0 c 5.322,0 7.274,-1.431 10.419,-5.609 2.359,-3.134 4.332,-7.436 5.591,-11.023 -2.737,-0.918 -5.816,-6.28 -8.301,-4.751 -1.654,1.013 -3.274,3.833 -4.507,5.352 -0.978,1.207 -1.667,4.21 -2.774,4.696" /></g><g
           transform="translate(710.7598,386.4531)"
           id="g32"><path
             id="path34"
             style="fill:#ffa49f;fill-opacity:1;fill-rule:nonzero;stroke:none"
             d="m 0,0 c -2.611,-1.841 -3.128,-6.984 -3.409,-9.847 -0.284,-2.887 1.013,-7.627 -0.859,-10.087 -3.234,-4.261 -9.557,-2.118 -12.844,0.528 -1.898,1.529 -5.736,5.711 -5.721,8.332 10e-4,0.347 -0.162,0.667 -0.24,0.991 4.864,0.148 1.766,14.474 1.075,17.152 4.415,1.737 9.992,-0.787 14.727,0.201" /></g><g
           transform="translate(694.4697,213.9082)"
           id="g36"><path
             id="path38"
             style="fill:#ffa281;fill-opacity:1;fill-rule:nonzero;stroke:none"
             d="m 0,0 c 0,-18.636 -3.86,-39.645 -2.547,-58.083 3.136,-43.975 0.388,-42.419 0.196,-47.105 -0.25,-6.159 5.818,-5.083 10.578,-5.584 5.495,-0.579 10.958,-0.773 16.39,-1.534 3.243,-0.456 14.532,-0.537 8.355,4.852 -4.041,3.525 -13.249,6.268 -17.107,10.198 -3.477,3.543 -4.336,36.67 -1.99,48.48 1.653,8.328 3.528,16.584 5.231,24.988 0.839,4.142 1.94,8.23 3.166,12.327 0.747,2.489 0.872,5.106 1.291,7.64 0.429,2.577 2.98,7.414 1.118,9.695" /></g><g
           transform="translate(713.0469,221.2139)"
           id="g40"><path
             id="path42"
             style="fill:#ffa281;fill-opacity:1;fill-rule:nonzero;stroke:none"
             d="m 0,0 c -0.367,-3.154 -3.237,-6.691 -4.838,-9.374 -2.051,-3.431 -4.553,-6.664 -7.126,-9.763 -5.783,-6.964 -12.375,-13.221 -18.118,-20.108 -5.106,-6.115 -9.901,-12.779 -14.022,-19.526 -3.467,-5.675 -8.2,-10.446 -11.166,-16.382 -4.494,-9.008 -7.484,-17.597 -7.523,-27.445 -0.011,-2.974 2.86,-11.675 0.016,-13.178 -4.313,-2.282 -7.28,5.942 -8.255,8.646 -1.611,4.464 -2.549,8.472 -2.798,13.39 -0.254,5.008 -2.959,8.605 -3.32,13.367 -0.471,6.194 4.949,5.422 7.836,9.435 3.213,4.464 5.103,9.414 7.357,14.276 9.089,19.626 19.455,37.513 33.777,53.84 1.327,1.511 2.484,2.976 3.368,4.809" /></g><g
           transform="translate(676.2432,368.7598)"
           id="g44"><path
             id="path46"
             style="fill:#9f0000;fill-opacity:1;fill-rule:nonzero;stroke:none"
             d="m 0,0 c 2.647,2.029 4.835,3.94 7.845,5.49 1.041,0.533 2.933,1.76 4.064,1.187 0.858,-0.437 1.806,-3.065 2.44,-3.89 2.783,-3.641 15.58,-7.657 16.21,-0.634 0.17,1.935 -0.468,3.655 -0.364,5.652 1.011,-0.042 1.936,0.172 2.882,0.397 -0.824,-2.551 0.996,-6.436 1.838,-8.987 1.189,-3.602 3.648,-7.212 5.578,-10.578 3.814,-6.647 5.881,-12.758 3.923,-20.37 -2.049,-7.968 -4.085,-15.599 -4.499,-23.896 -0.177,-3.503 -0.564,-7.112 -0.741,-10.577 -0.152,-2.989 0.8,-6.931 0,-9.797 -0.09,-0.317 -0.013,-0.813 -0.03,-1.144 -9.442,-0.48 -19.071,-0.499 -28.33,0.758 -1.891,0.256 -3.829,0.293 -5.724,0.582 -2.127,0.327 -1.783,1.49 -2.11,3.527 -0.641,4.001 -1.364,7.977 -1.994,11.991 -1.15,7.355 -1.848,14.889 -2.598,22.244 -0.765,7.478 -2.112,14.654 -2.112,22.376" /></g><g
           transform="translate(720.0176,402.3882)"
           id="g48"><path
             id="path50"
             style="fill:#ffa49f;fill-opacity:1;fill-rule:nonzero;stroke:none"
             d="m 0,0 c 0,-12.68 -6.726,-22.955 -15.021,-22.955 -8.295,0 -15.022,10.275 -15.022,22.955 0,12.676 6.727,22.951 15.022,22.951 C -6.726,22.951 0,12.676 0,0" /></g><g
           transform="translate(697.667,420.5347)"
           id="g52"><path
             id="path54"
             style="fill:#000000;fill-opacity:1;fill-rule:nonzero;stroke:none"
             d="m 0,0 c 0,0 6.488,-4.087 0,-11.297 l 10.573,1.203 c 0,0 2.406,6.969 1.925,11.296 0,0 2.163,-7.931 1.682,-11.058 0,0 5.527,-0.721 9.372,2.885 0,0 2.163,27.88 -15.862,25.96 0,0 -17.785,9.371 -30.524,-4.088 0,0 -15.621,-13.94 -9.372,-40.376 L 1.44,-40.137 c 0,0 -8.653,28.84 -1.44,40.137" /></g><g
           transform="translate(639.1377,146.5928)"
           id="g56"><path
             id="path58"
             style="fill:#000000;fill-opacity:1;fill-rule:nonzero;stroke:none"
             d="m 0,0 c -0.17,-1.51 -1.104,-2.881 -1.216,-4.437 -0.098,-1.406 0.033,-2.974 0.509,-4.275 0.956,-2.611 2.736,-4.777 3.579,-7.44 1.456,-4.606 0.501,-12.214 5.778,-14.707 0.928,-0.442 1.685,-0.531 2.738,-0.211 1.815,-3.146 3.903,-10.906 -1.456,-11.382 -5.464,-0.484 -8.183,6.717 -9.526,10.99 -1.691,5.386 -1.546,11.142 -3.218,16.433 -0.832,2.633 -2.15,5.259 -2.424,7.999 -0.253,2.513 0.986,4.575 2.809,6.284 0.678,0.635 2.225,0.99 2.405,1.186" /></g><g
           transform="translate(692.5605,111.8037)"
           id="g60"><path
             id="path62"
             style="fill:#000000;fill-opacity:1;fill-rule:nonzero;stroke:none"
             d="m 0,0 c 5.709,-0.671 -0.441,-3.82 16.042,-5.153 3.145,-0.251 6.374,-1.018 9.519,-1.163 2.617,-0.125 5.14,0.214 4.449,3.273 -0.08,0.348 -0.526,0.7 -0.611,1.115 2.198,-0.497 11.511,-5.118 8.365,-8.094 -1.962,-1.855 -11.615,-3.494 -37.356,2.052 -2.241,0.484 -3.322,2.382 -3.2,4.591 0,0 0.295,3.671 2.792,3.379" /></g><g
           transform="translate(711.6035,291.4639)"
           id="g64"><path
             id="path66"
             style="fill:#ffe300;fill-opacity:1;fill-rule:nonzero;stroke:none"
             d="m 0,0 c 13.51,-11.018 18.657,-31.383 23.563,-47.437 2.295,-7.504 6.263,-14.552 11.146,-20.932 4.606,-6.015 11.559,-10.444 15.62,-16.776 -4.04,-3.315 -10.213,-4.969 -14.75,-8.338 -5.282,-3.923 -9.932,-8.046 -16.068,-10.464 -13.404,-5.279 -26.064,-3.445 -39.06,1.392 -10.035,3.736 -18.534,9.773 -28.584,13.433 -9.206,3.351 -19.335,2.222 -29.247,2.722 10.822,16.798 16.418,32.987 21.744,52.214 4.426,15.976 13.856,25.252 24.243,36.975 z" /></g><g
           transform="translate(741.2725,361.2466)"
           id="g68"><path
             id="path70"
             style="fill:#689a3d;fill-opacity:1;fill-rule:nonzero;stroke:none"
             d="M 0,0 C 0.581,5.691 6.603,12.085 11.654,14.295 9.437,11.951 7.666,8.825 6.366,5.798 7.452,7.212 9.335,9.07 11.224,9.003 10.377,7.633 9.04,6.404 8.41,4.873 11.753,7.722 17.186,10.33 21.761,10.377 16.984,7.608 13.157,4.25 9.281,0.476 c 2.238,0.961 4.401,1.604 6.748,2.19 -1.587,-1.014 -3.423,-1.702 -4.677,-3.079 1.327,0.082 2.379,0.939 3.792,0.871 -3.036,-2.04 -5.669,-4.952 -8.807,-6.794 -1.636,-0.962 -1.827,-0.681 -3.74,-0.326 -1.37,0.254 -2.757,0.369 -4.14,0.71" /></g><g
           transform="translate(720.1123,361.9087)"
           id="g72"><path
             id="path74"
             style="fill:#97cc3d;fill-opacity:1;fill-rule:nonzero;stroke:none"
             d="m 0,0 c -2.034,2.163 0.388,5.46 3.053,5.323 0.096,1.651 -0.349,3.06 1.13,4.105 1.261,0.891 3.659,0.711 4.359,-0.594 0.326,1.529 2.725,3.844 4.467,3.083 1.396,-0.609 1.412,-4.071 1.319,-5.46 0.512,3.285 6.02,-1.916 3.555,-4.236 0.836,2.279 4.536,-0.274 4.192,-2.59 2.497,1.872 2.138,-3.7 0.187,-4.701 z" /></g><g
           transform="translate(730.2939,359.8457)"
           id="g76"><path
             id="path78"
             style="fill:#59ba00;fill-opacity:1;fill-rule:nonzero;stroke:none"
             d="M 0,0 C -1.558,1.66 0.3,4.188 2.342,4.084 2.416,5.35 2.073,6.43 3.21,7.231 4.176,7.915 6.017,7.778 6.553,6.775 6.802,7.949 8.641,9.726 9.978,9.142 11.049,8.674 11.063,6.018 10.99,4.953 c 0.394,2.52 4.617,-1.469 2.727,-3.248 0.64,1.747 3.479,-0.21 3.216,-1.986 1.915,1.435 1.639,-2.84 0.142,-3.607 z" /></g><g
           transform="translate(764.3076,362.3506)"
           id="g80"><path
             id="path82"
             style="fill:#9f0000;fill-opacity:1;fill-rule:nonzero;stroke:none"
             d="m 0,0 c 0,-2.009 -1.629,-3.638 -3.638,-3.638 -2.008,0 -3.636,1.629 -3.636,3.638 0,2.007 1.628,3.636 3.636,3.636 C -1.629,3.636 0,2.007 0,0" /></g><g
           transform="translate(752.624,358.3813)"
           id="g84"><path
             id="path86"
             style="fill:#c90000;fill-opacity:1;fill-rule:nonzero;stroke:none"
             d="m 0,0 c 0,-2.009 -1.628,-3.637 -3.636,-3.637 -2.008,0 -3.637,1.628 -3.637,3.637 0,2.008 1.629,3.636 3.637,3.636 C -1.628,3.636 0,2.008 0,0" /></g><g
           transform="translate(754.8281,364.9937)"
           id="g88"><path
             id="path90"
             style="fill:#d90000;fill-opacity:1;fill-rule:nonzero;stroke:none"
             d="m 0,0 c 0,-2.008 -1.627,-3.637 -3.637,-3.637 -2.008,0 -3.636,1.629 -3.636,3.637 0,2.009 1.628,3.637 3.636,3.637 C -1.627,3.637 0,2.009 0,0" /></g><g
           transform="translate(760.0088,360.2549)"
           id="g92"><path
             id="path94"
             style="fill:#c90000;fill-opacity:1;fill-rule:nonzero;stroke:none"
             d="m 0,0 c 0,-2.008 -1.629,-3.637 -3.638,-3.637 -2.008,0 -3.636,1.629 -3.636,3.637 0,2.009 1.628,3.637 3.636,3.637 C -1.629,3.637 0,2.009 0,0" /></g><g
           transform="translate(747.3467,356.4199)"
           id="g96"><path
             id="path98"
             style="fill:#796300;fill-opacity:1;fill-rule:nonzero;stroke:none"
             d="M 0,0 20.371,5.875 5.877,-61.899 -10.381,-72.084 Z" /></g><g
           transform="translate(731.3535,359.4829)"
           id="g100"><path
             id="path102"
             style="fill:#2a7500;fill-opacity:1;fill-rule:nonzero;stroke:none"
             d="m 0,0 c 2.426,15.209 -8.377,12.344 -8.042,22.12 -0.32,-3.944 -0.685,-7.482 1.57,-10.903 -2.011,-0.068 -3.572,1.658 -5.55,1.834 -1.79,0.16 -3.602,-0.652 -5.025,-1.664 1.248,-0.737 2.719,-0.574 4.014,-1.123 -4.906,0.501 -10.507,-2.044 -13.362,-6.115 2.357,1.188 4.915,1.012 7.211,2.276 -2.842,-2.623 -7.384,-6.599 -11.202,-7.237 4.991,-1.769 6.391,1.536 10.406,3.329 -0.196,-1.02 -0.71,-2.129 -1.493,-2.903 2.287,0.514 3.385,2.531 5.332,3.631 -0.011,-2.397 -1.39,-3.599 -2.036,-5.689 1.953,2.335 3.637,4.067 6.8,4.133 C -8.888,1.743 -1.664,0.291 0,0.442" /></g><g
           transform="translate(747.3467,356.4199)"
           id="g104"><path
             id="path106"
             style="fill:#9f7500;fill-opacity:1;fill-rule:nonzero;stroke:none"
             d="m 0,0 -33.298,6.853 -2.547,-71.495 25.464,-7.442 z" /></g><g
           transform="translate(739.3154,328.4111)"
           id="g108"><path
             id="path110"
             style="fill:#ffa281;fill-opacity:1;fill-rule:nonzero;stroke:none"
             d="m 0,0 c 2.447,1.256 4.165,3.607 5.682,5.874 0.933,1.393 3.514,5.497 5.259,5.651 C 11.024,9.782 9.34,8.437 9.433,6.688 c 5.201,-0.84 9.727,5.036 15.023,4.249 0.082,-1.486 -4.528,-3.288 -5.778,-4.093 1.138,-0.051 7.814,2.851 8.314,1.733 0.489,-1.092 -6.569,-3.481 -7.529,-4.084 3.002,-0.149 5.459,2.195 8.518,1.94 -0.227,-1.94 -5.264,-3.06 -6.809,-3.846 1.474,-0.243 2.772,0.419 4.086,0.748 1.106,0.283 3.974,1.027 3.139,-0.546 C 27.561,1.206 22.915,-0.008 21.346,-0.933 18.749,-2.471 16.286,-3.859 13.321,-4.498 10.114,-5.187 7.102,-4.972 4.109,-6.424 3.414,-6.762 2.675,-7.223 1.96,-7.448" /></g><g
           transform="translate(703.0791,323.1196)"
           id="g112"><path
             id="path114"
             style="fill:#7a0000;fill-opacity:1;fill-rule:nonzero;stroke:none"
             d="m 0,0 -14.691,41.917 c 0,0 -4.9,8.227 -13.124,2.35 0,0 -7.64,-3.329 0.586,-20.37 l 17.435,-35.258 c 0,0 3.524,-8.619 9.989,-7.639 L 40.742,-2.546 37.217,5.877 1.175,-3.134 Z" /></g><g
           transform="translate(265.4937,174.5918)"
           id="g116"><path
             id="path118"
             style="fill:#171a1e;fill-opacity:1;fill-rule:nonzero;stroke:none"
             d="m 0,0 -54.375,-32.486 6.554,-3.14 51.322,30.328 z" /></g><g
           transform="translate(357.2905,162.1719)"
           id="g120"><path
             id="path122"
             style="fill:#171a1e;fill-opacity:1;fill-rule:nonzero;stroke:none"
             d="m 0,0 0.004,0.024 -88.955,12.121 -1.167,-6.999 71.493,-9.738 c -0.011,-0.011 -0.027,-0.018 -0.037,-0.025 l 14.021,-1.888 h 0.04 l 3.44,-0.466 c 0,0 12.39,-2.498 12.731,-13.426 l 7.486,0.028 C 19.016,-10.121 10.783,-1.657 0,0" /></g><g
           transform="translate(385.5742,131.9424)"
           id="g124"><path
             id="path126"
             style="fill:#d02a35;fill-opacity:1;fill-rule:nonzero;stroke:none"
             d="m 0,0 c 0.025,-6.274 -5.043,-11.38 -11.318,-11.402 -6.271,-0.021 -11.377,5.047 -11.398,11.32 -0.023,6.274 5.041,11.379 11.319,11.4 C -5.124,11.341 -0.022,6.274 0,0" /></g><g
           transform="translate(379.5869,131.9199)"
           id="g128"><path
             id="path130"
             style="fill:#3a424e;fill-opacity:1;fill-rule:nonzero;stroke:none"
             d="m 0,0 c 0.013,-3.006 -2.416,-5.446 -5.419,-5.457 -3.004,-0.012 -5.449,2.415 -5.457,5.419 -0.012,3.004 2.416,5.444 5.418,5.457 C -2.455,5.43 -0.009,3.001 0,0" /></g><g
           transform="translate(389.6523,242.2881)"
           id="g132"><path
             id="path134"
             style="fill:#5a5b5b;fill-opacity:1;fill-rule:nonzero;stroke:none"
             d="m 0,0 -143.207,-0.512 -0.022,5.848 143.208,0.512 z" /></g><g
           transform="translate(270.6934,175.3428)"
           id="g136"><path
             id="path138"
             style="fill:#626466;fill-opacity:1;fill-rule:nonzero;stroke:none"
             d="m 0,0 -46.8,140.688 -7.057,-2.35 45,-135.275 c -2.481,-1.077 -4.213,-3.549 -4.204,-6.424 0.014,-3.852 3.149,-6.962 6.998,-6.949 1.835,0.008 3.487,0.738 4.726,1.896 1.368,1.278 2.23,3.086 2.223,5.104 C 0.885,-2.985 0,0 0,0" /></g><g
           transform="translate(383.3511,278.8408)"
           id="g140"><path
             id="path142"
             style="fill:#626466;fill-opacity:1;fill-rule:nonzero;stroke:none"
             d="m 0,0 -152.971,17.686 -0.28,0.035 2.62,-7.242 0.06,-0.006 0.007,-0.015 c 0,0 148.51,-15.521 149.118,-15.712 4.29,-1.383 5.074,-7.683 4.988,-12.345 L 2.839,-58.967 c -0.028,-1.725 -1.306,-3.17 -3.019,-3.385 -19,-2.435 -122.789,-15.674 -122.789,-15.674 l 3.382,-5.565 c 0,0 123.4,15.007 123.415,15.184 2.592,1.409 4.338,4.113 4.396,7.218 l 0.939,50.657 C 9.26,-5.188 5.305,-0.64 0,0" /></g><g
           transform="translate(282.1714,202.2207)"
           id="g144"><path
             id="path146"
             style="fill:#626466;fill-opacity:1;fill-rule:nonzero;stroke:none"
             d="m 0,0 -5.693,-1.738 -27.024,88.576 5.692,1.736 z" /></g><g
           transform="translate(303.8745,202.6338)"
           id="g148"><path
             id="path150"
             style="fill:#626466;fill-opacity:1;fill-rule:nonzero;stroke:none"
             d="m 0,0 -5.692,-1.741 -27.022,88.575 5.689,1.737 z" /></g><g
           transform="translate(324.8589,205.4111)"
           id="g152"><path
             id="path154"
             style="fill:#626466;fill-opacity:1;fill-rule:nonzero;stroke:none"
             d="m 0,0 -5.69,-1.736 -24.867,81.488 5.693,1.735 z" /></g><g
           transform="translate(345.749,208.4922)"
           id="g156"><path
             id="path158"
             style="fill:#626466;fill-opacity:1;fill-rule:nonzero;stroke:none"
             d="m 0,0 -5.691,-1.734 -23.751,77.835 5.69,1.735 z" /></g><g
           transform="translate(366.4912,211.1514)"
           id="g160"><path
             id="path162"
             style="fill:#626466;fill-opacity:1;fill-rule:nonzero;stroke:none"
             d="m 0,0 -5.701,-1.697 -21.475,72.125 5.707,1.698 z" /></g><g
           transform="translate(387.5195,214.6826)"
           id="g164"><path
             id="path166"
             style="fill:#626466;fill-opacity:1;fill-rule:nonzero;stroke:none"
             d="m 0,0 -5.692,-1.737 -19.936,65.339 5.69,1.737 z" /></g><g
           transform="translate(207.3115,133.0176)"
           id="g168"><path
             id="path170"
             style="fill:#d02a35;fill-opacity:1;fill-rule:nonzero;stroke:none"
             d="M 0,0 C -0.011,3.004 2.417,5.447 5.42,5.459 L 5.397,11.38 C -0.876,11.36 -5.945,6.253 -5.92,-0.02 -5.899,-6.293 -0.794,-11.361 5.479,-11.339 L 5.46,-5.418 C 2.454,-5.427 0.01,-2.999 0,0" /></g><g
           transform="translate(212.709,144.3975)"
           id="g172"><path
             id="path174"
             style="fill:#b72036;fill-opacity:1;fill-rule:nonzero;stroke:none"
             d="m 0,0 0.022,-5.921 c 3.004,0.01 5.447,-2.416 5.458,-5.42 0.009,-3.003 -2.414,-5.444 -5.418,-5.457 l 0.02,-5.921 c 6.274,0.019 11.344,5.127 11.321,11.403 C 11.378,-5.046 6.275,0.022 0,0" /></g><g
           transform="translate(218.1895,133.0566)"
           id="g176"><path
             id="path178"
             style="fill:#323944;fill-opacity:1;fill-rule:nonzero;stroke:none"
             d="m 0,0 c -0.012,3.004 -2.455,5.43 -5.458,5.42 l 0.04,-10.877 C -2.415,-5.444 0.009,-3.003 0,0" /></g><g
           transform="translate(374.4214,143.2578)"
           id="g180"><path
             id="path182"
             style="fill:#b72036;fill-opacity:1;fill-rule:nonzero;stroke:none"
             d="m 0,0 0.021,-5.917 c 3.001,0.009 5.447,-2.418 5.456,-5.42 0.011,-3.001 -2.414,-5.446 -5.419,-5.457 l 0.025,-5.92 c 6.272,0.021 11.336,5.123 11.317,11.398 C 11.378,-5.044 6.271,0.027 0,0" /></g><g
           transform="translate(379.8984,131.9209)"
           id="g184"><path
             id="path186"
             style="fill:#323944;fill-opacity:1;fill-rule:nonzero;stroke:none"
             d="M 0,0 C -0.009,3.002 -2.455,5.429 -5.457,5.42 L -5.419,-5.457 C -2.414,-5.446 0.011,-3.001 0,0" /></g><g
           transform="translate(207.3115,133.0176)"
           id="g188"><path
             id="path190"
             style="fill:#3a424e;fill-opacity:1;fill-rule:nonzero;stroke:none"
             d="M 0,0 C 0.01,-2.999 2.454,-5.427 5.46,-5.418 L 5.42,5.459 C 2.417,5.447 -0.011,3.004 0,0" /></g><g
           transform="translate(190.5234,319.7593)"
           id="g192"><path
             id="path194"
             style="fill:#e05f6f;fill-opacity:1;fill-rule:nonzero;stroke:none"
             d="m 0,0 c -1.8,-0.006 -3.269,-1.486 -3.263,-3.287 l 0.015,-4.607 c 0.008,-1.801 1.487,-3.268 3.288,-3.263 l 16.12,0.058 -0.039,11.158 z" /></g><g
           transform="translate(221.1611,319.8711)"
           id="g196"><path
             id="path198"
             style="fill:#db4553;fill-opacity:1;fill-rule:nonzero;stroke:none"
             d="m 0,0 -14.517,-0.053 0.039,-11.157 14.52,0.052 c 1.802,0.008 3.268,1.484 3.26,3.286 L 3.291,-3.265 C 3.283,-1.464 1.805,0.004 0,0" /></g><g
           transform="translate(150.5605,452.168)"
           id="g200"><path
             id="path202"
             style="fill:#100e1b;fill-opacity:1;fill-rule:nonzero;stroke:none"
             d="m 0,0 c 1.294,-5.079 6.804,-9.565 4.29,-14.974 -1.559,-3.357 -9.288,-6.645 -7.688,-10.912 0.765,-2.036 4.927,-1.843 4.817,-4.221 -0.13,-2.807 -5.25,-1.434 -6.566,-3.581 -3.978,-6.481 10.574,-7.253 13.026,-8.73 3.036,-1.831 5.921,-6.435 4.789,-10.199 -0.682,-2.27 -4.855,-7.075 -7.574,-6.416 3.556,6.099 -3.361,7.54 -7.626,7.54 -2.352,0 -4.688,-0.347 -6.541,1.336 -1.739,1.582 -1.708,3.988 -3.02,5.7 -1.976,2.576 -5.842,1.669 -8.104,3.924 -2.385,2.379 -2.646,7.141 -0.969,9.876 1.763,2.871 5.254,3.773 7.671,5.883 2.348,2.045 4.56,4.798 5.889,7.671 0.989,2.144 3.01,10.17 -1.397,9.508" /></g><g
           transform="translate(137.6172,425.1567)"
           id="g204"><path
             id="path206"
             style="fill:#ffc884;fill-opacity:1;fill-rule:nonzero;stroke:none"
             d="m 0,0 c 0,0 -3.658,-9.288 0.562,-21.105 l -1.688,-10.973 -23.636,15.756 2.814,29.826" /></g><g
           transform="translate(150.5605,453.5762)"
           id="g208"><path
             id="path210"
             style="fill:#ffdda9;fill-opacity:1;fill-rule:nonzero;stroke:none"
             d="m 0,0 c 0,0 6.753,-30.108 -11.817,-31.796 0,0 -12.101,-1.97 -18.854,5.346 0,0 -5.065,10.973 0.845,22.792 0,0 6.472,10.973 14.349,14.069" /></g><g
           transform="translate(91.002,158.5908)"
           id="g212"><path
             id="path214"
             style="fill:#307300;fill-opacity:1;fill-rule:nonzero;stroke:none"
             d="m 0,0 c 3.168,5.105 -8.63,-24.388 -0.033,-32.687 0,0 5.231,-5.002 5.29,-8.104 l -16.889,3.834 -5.702,14.637 -2.923,-13.187 -3.297,0.73 3.004,13.555 c 0,0 -2.811,6.388 0.199,9.562 0,0 6.564,7.14 7.448,11.616 0.051,0.257 0.083,0.504 0.094,0.741 C -12.608,5.07 0,0 0,0" /></g><g
           transform="translate(162.8491,153.3369)"
           id="g216"><path
             id="path218"
             style="fill:#307300;fill-opacity:1;fill-rule:nonzero;stroke:none"
             d="m 0,0 c 0,-0.562 -1.314,-22.697 6.564,-28.14 0,0 6.19,-3.75 6.379,-6.941 H -2.44 l -10.13,13.321 v -13.507 h -3.377 v 13.882 c 0,0 -4.126,5.628 -1.875,9.379 0,0.002 4.865,8.394 4.759,12.952 -0.005,0.26 -0.029,0.511 -0.07,0.744 C -13.882,6.002 0,0 0,0" /></g><g
           transform="translate(141.5571,328.9229)"
           id="g220"><path
             id="path222"
             style="fill:#750000;fill-opacity:1;fill-rule:nonzero;stroke:none"
             d="m 0,0 21.854,-88.544 3.377,-87.792 H 5.722 l -4.879,81.79 c 0,0 -21.76,43.896 -21.76,45.023 C -20.917,-48.399 0,0 0,0" /></g><g
           transform="translate(136.2104,411.6494)"
           id="g224"><path
             id="path226"
             style="fill:#ffc884;fill-opacity:1;fill-rule:nonzero;stroke:none"
             d="m 0,0 c 0,0 6.894,-2.532 14.35,-23.637 l 6.332,-25.747 c 0,0 24.48,-30.529 29.966,-32.498 0,0 7.035,-2.956 8.865,-7.316 l -19.838,6.471 -32.219,26.451" /></g><g
           transform="translate(115.2476,411.0864)"
           id="g228"><path
             id="path230"
             style="fill:#071700;fill-opacity:1;fill-rule:nonzero;stroke:none"
             d="m 0,0 c 0,0 20.54,-14.912 20.54,-14.351 0,0.562 0.423,14.914 0.423,14.914 0,0 12.381,-22.792 13.647,-31.233 0,0 1.969,-7.176 -3.095,-12.24 L 26.31,-82.164 H -7.036 c 0,0 -7.737,57.121 -6.331,68.518 0,0 2.955,13.646 13.367,13.646" /></g><g
           transform="translate(140.853,351.7144)"
           id="g232"><path
             id="path234"
             style="fill:#ffdda9;fill-opacity:1;fill-rule:nonzero;stroke:none"
             d="m 0,0 c 0,0 -19.696,51.916 -29.405,54.027 0,0 -2.955,0.984 -7.316,-1.972 0,0 -5.768,-5.205 1.266,-17.164 0,0 15.899,-35.313 29.264,-45.303 0,0 29.406,-16.742 48.962,-20.541 l 0.421,7.879 C 43.192,-23.074 4.36,-0.705 0,0" /></g><g
           transform="translate(184.0454,328.6406)"
           id="g236"><path
             id="path238"
             style="fill:#ffdda9;fill-opacity:1;fill-rule:nonzero;stroke:none"
             d="m 0,0 c 2.223,-0.216 4.407,-0.597 6.184,-2.001 1.575,-1.247 2.877,-2.694 4.616,-3.657 2.193,-1.218 3.972,-1.563 3.972,-4.329 0,-2.095 -0.681,-4.249 -1.933,-5.942 -0.502,-0.678 -1.158,-1.803 -1.868,-0.654 -0.638,-0.896 -1.82,-2.268 -2.811,-0.991 -0.959,-1.288 -5.017,-1.817 -3.207,0.37 0.722,0.874 1.565,1.039 1.941,2.29 0.287,0.954 0.201,2.225 0.141,3.238 -0.167,2.734 -1.979,3.133 -4.362,3.343 -0.945,0.084 -2.572,0.164 -3.376,0.627 -1.04,0.599 -1.191,1.789 -1.83,2.783" /></g><g
           transform="translate(193.4717,315.4873)"
           id="g240"><path
             id="path242"
             style="fill:#000000;fill-opacity:1;fill-rule:nonzero;stroke:none"
             d="m 0,0 c 0,-3.382 -2.74,-6.122 -6.121,-6.122 -3.379,0 -6.118,2.74 -6.118,6.122 0,3.382 2.739,6.119 6.118,6.119 C -2.74,6.119 0,3.382 0,0" /></g><g
           transform="translate(141.5571,328.9229)"
           id="g244"><path
             id="path246"
             style="fill:#9f0000;fill-opacity:1;fill-rule:nonzero;stroke:none"
             d="m 0,0 -19.791,-105.05 -24.762,-69.785 -20.635,6.378 24.386,65.656 0.376,64.155 c 0,0 -7.223,21.762 7.081,38.646 z" /></g><g
           transform="translate(137.8984,471.0225)"
           id="g248"><path
             id="path250"
             style="fill:#100e1b;fill-opacity:1;fill-rule:nonzero;stroke:none"
             d="m 0,0 c 3.591,4.444 9.728,-0.342 10.967,-4.221 1.373,-4.308 -1.383,-12.781 5.872,-11.362 -0.335,-6.938 -8.585,-3.617 -11.134,-0.455 -3.104,3.845 -7.027,6.28 -10.137,0.56 -2.092,-3.848 -1.423,-8.422 -3.659,-12.107 -2.564,-4.226 -8.827,-3.508 -11.106,-7.301 -3.001,-4.996 2.594,-7.964 3.174,-12.668 0.73,-5.925 -7.402,-4.235 -7.338,-9.287 0.036,-2.96 3.66,-2.753 3.945,-5.626 0.292,-2.961 -2.6,-3.972 -5.064,-3.658 -2.637,0.332 -4.946,1.896 -7.26,-0.298 -1.968,-1.865 -1.631,-4.672 -1.745,-7.08 -0.149,-3.143 -0.759,-2.88 -3.447,-4.364 -2.224,-1.23 -3.488,-2.587 -3.586,-5.152 -0.153,-3.983 4.095,-6.18 4.176,-9.535 -4.633,3.051 -9.865,8.015 -7.349,14.054 2.384,5.727 5.462,8.179 -0.267,13.225 -6.046,5.323 -5.766,14.766 -0.775,20.885 1.869,2.291 3.502,5.243 3.087,8.372 -0.318,2.396 -2.339,4.52 -2.187,7.047 0.212,3.597 4.083,3.961 5.241,6.803 0.899,2.207 -0.183,5.702 0.387,8.099 0.552,2.32 1.852,5.517 3.37,7.316 1.939,2.298 4.465,2.031 6.766,3.307 4.736,2.626 6.468,6.578 12.593,5.34 4.93,-0.998 8.851,5.015 13.583,0.996 1.08,-0.917 1.914,-2.036 1.99,-3.432 C 0.114,-0.555 -0.612,0.031 -0.563,0" /></g><g
           transform="translate(535.793,121.8018)"
           id="g252"><path
             id="path254"
             style="fill:#000f0b;fill-opacity:1;fill-rule:nonzero;stroke:none"
             d="m 0,0 c -0.127,-0.954 1.47,-2.197 2.146,-2.665 1.216,-0.841 2.25,-1.358 3.689,-1.642 2.578,-0.505 5.424,-0.661 7.902,-1.511 2.936,-1.007 6.207,-3.024 7.338,-6.052 0.094,-0.249 0.225,-0.705 0.255,-0.737 h -39.237 c 0,0 -2.55,9.322 1.944,13.815 z" /></g><g
           transform="translate(509.4346,121.6699)"
           id="g256"><path
             id="path258"
             style="fill:#00282e;fill-opacity:1;fill-rule:nonzero;stroke:none"
             d="m 0,0 c -0.129,-0.956 1.469,-2.201 2.146,-2.666 1.214,-0.842 2.25,-1.36 3.689,-1.642 2.579,-0.505 5.421,-0.663 7.899,-1.512 2.937,-1.006 6.21,-3.024 7.34,-6.051 0.095,-0.249 0.226,-0.704 0.254,-0.739 h -39.236 c 0,0 -2.551,9.322 1.943,13.816 z" /></g><g
           transform="translate(529.1729,308.7856)"
           id="g260"><path
             id="path262"
             style="fill:#000000;fill-opacity:1;fill-rule:nonzero;stroke:none"
             d="m 0,0 -9.474,-185.797 c 0,0 5.264,-5.79 16.317,-2.107 L 31.582,0 Z" /></g><g
           transform="translate(502.3301,308.7856)"
           id="g264"><path
             id="path266"
             style="fill:#000033;fill-opacity:1;fill-rule:nonzero;stroke:none"
             d="m 0,0 -10.001,-186.326 c 0,0 7.896,-5.261 17.369,-1.051 L 37.896,5.79" /></g><g
           transform="translate(531.4531,257.9033)"
           id="g268"><path
             id="path270"
             style="fill:#005d73;fill-opacity:1;fill-rule:nonzero;stroke:none"
             d="m 0,0 c 0,-2.228 -1.808,-4.034 -4.035,-4.034 h -103.162 c -2.23,0 -4.035,1.806 -4.035,4.034 0,2.229 1.805,4.036 4.035,4.036 H -4.035 C -1.808,4.036 0,2.229 0,0" /></g><g
           transform="translate(521.4531,209.6562)"
           id="g272"><path
             id="path274"
             style="fill:#005d73;fill-opacity:1;fill-rule:nonzero;stroke:none"
             d="m 0,0 c 0,-2.034 -1.651,-3.684 -3.685,-3.684 h -84.388 c -2.036,0 -3.686,1.65 -3.686,3.684 0,2.036 1.65,3.686 3.686,3.686 H -3.685 C -1.651,3.686 0,2.036 0,0" /></g><g
           transform="translate(463.9932,276.8516)"
           id="g276"><path
             id="path278"
             style="fill:#005d73;fill-opacity:1;fill-rule:nonzero;stroke:none"
             d="m 0,0 c -4.594,0 -8.333,-3.738 -8.333,-8.333 0,-4.596 3.739,-8.333 8.333,-8.333 h 28.949 c 4.597,0 8.336,3.737 8.336,8.333 C 37.285,-3.738 33.546,0 28.949,0 Z M 28.949,-22.982 H 0 c -8.077,0 -14.648,6.571 -14.648,14.649 0,8.078 6.571,14.648 14.648,14.648 h 28.949 c 8.077,0 14.651,-6.57 14.651,-14.648 0,-8.078 -6.574,-14.649 -14.651,-14.649" /></g><g
           transform="translate(432.6992,209.8066)"
           id="g280"><path
             id="path282"
             style="fill:#005d73;fill-opacity:1;fill-rule:nonzero;stroke:none"
             d="M 0,0 -5.437,45.44 0.832,46.193 6.271,0.753 Z" /></g><g
           transform="translate(446.1992,209.9053)"
           id="g284"><path
             id="path286"
             style="fill:#005d73;fill-opacity:1;fill-rule:nonzero;stroke:none"
             d="M 0,0 -4.036,45.614 2.255,46.17 6.29,0.556 Z" /></g><g
           transform="translate(458.4678,210.2861)"
           id="g288"><path
             id="path290"
             style="fill:#005d73;fill-opacity:1;fill-rule:nonzero;stroke:none"
             d="M 0,0 -1.055,46.317 5.262,46.461 6.314,0.143 Z" /></g><path
           id="path292"
           style="fill:#005d73;fill-opacity:1;fill-rule:nonzero;stroke:none"
           d="m 477.942,211.585 h -6.317 v 45.091 h 6.317 z" /><g
           transform="translate(491.2744,211)"
           id="g294"><path
             id="path296"
             style="fill:#005d73;fill-opacity:1;fill-rule:nonzero;stroke:none"
             d="M 0,0 -6.313,0.119 -5.438,46.788 0.878,46.67 Z" /></g><g
           transform="translate(504.6074,211.2627)"
           id="g298"><path
             id="path300"
             style="fill:#005d73;fill-opacity:1;fill-rule:nonzero;stroke:none"
             d="m 0,0 -6.312,0.295 2.105,44.914 6.312,-0.295 z" /></g><g
           transform="translate(513.6562,206.3135)"
           id="g302"><path
             id="path304"
             style="fill:#005d73;fill-opacity:1;fill-rule:nonzero;stroke:none"
             d="m 0,0 c -0.095,0 -0.191,0.004 -0.294,0.011 l 0.195,3.15 -3.107,0.547 c 0.202,1.279 3.768,29.884 6.113,48.797 L 9.176,51.728 6.129,27.246 C 5.366,21.125 4.6,15.006 4.021,10.413 L 3.315,4.86 C 3.008,2.472 2.692,0 0,0" /></g><g
           transform="translate(516.4092,440.8965)"
           id="g306"><path
             id="path308"
             style="fill:#9f6020;fill-opacity:1;fill-rule:nonzero;stroke:none"
             d="m 0,0 c 1.606,-2.045 1.46,-5.354 1.346,-7.796 -0.11,-2.26 -0.074,-4.566 -0.292,-6.81 -0.293,-2.94 -0.598,-5.388 0.028,-8.45 0.847,-4.153 3.015,-8.255 7.372,-9.218 3.819,-0.844 8.192,-1.093 11.68,0.985 3.189,1.907 4.921,5.221 4.736,8.887 -0.123,2.399 -1.406,4.519 -2.334,6.639 -0.549,1.252 -0.908,2.401 -0.956,3.756 -0.031,0.893 0.1,1.549 0.301,2.396 0.131,0.557 0.715,2.105 0.357,1.979" /></g><g
           transform="translate(545.2266,469.9766)"
           id="g310"><path
             id="path312"
             style="fill:#9f6020;fill-opacity:1;fill-rule:nonzero;stroke:none"
             d="m 0,0 c 0,0 11.974,-37.37 -6.054,-39.606 0,0 -13.671,-3.449 -21.71,9.868 0,0 -11.58,7.633 -5.132,13.948 0,0 2.238,1.842 4.604,0 l -2.763,13.948 10.528,9.606 12.895,1.974 z" /></g><g
           transform="translate(604.0439,376.0249)"
           id="g314"><path
             id="path316"
             style="fill:#9f6020;fill-opacity:1;fill-rule:nonzero;stroke:none"
             d="m 0,0 c 1.158,1.164 1.856,2.79 3.187,3.784 1.107,0.823 2.374,0.713 3.657,0.983 2.19,0.462 4.459,1.007 6.321,2.438 1.672,1.285 4.197,3.707 4.205,5.954 0.008,2.49 -2.706,4.301 -4.966,4.473 C 8.464,17.935 4.552,14.949 2.234,11.979 1.206,10.663 0.215,9.327 -0.819,7.999 -1.901,6.604 -3.976,4.597 -4.341,2.896" /></g><g
           transform="translate(597.9473,379.6646)"
           id="g318"><path
             id="path320"
             style="fill:#9f6020;fill-opacity:1;fill-rule:nonzero;stroke:none"
             d="m 0,0 c 2.053,6.47 7.458,12.57 13.861,14.777 1.504,0.518 2.928,0.863 4.175,1.938 0.641,0.554 1.681,2.679 2.845,2.031 1.258,-0.701 -0.096,-3.431 -0.744,-4.144 C 19.221,13.597 17.814,13.148 16.888,12.237 14.164,9.562 17.08,4.234 12.105,3.158" /></g><g
           transform="translate(614.0127,383.3779)"
           id="g322"><path
             id="path324"
             style="fill:#9f6020;fill-opacity:1;fill-rule:nonzero;stroke:none"
             d="M 0,0 C -0.005,-0.896 1.01,-1.534 1.869,-1.46 2.959,-1.367 3,-0.68 3.212,0.27 5.059,-0.925 5.884,1.272 6.267,2.65 6.937,0.501 8.639,3.92 8.819,4.568 10.822,1.961 11.062,8.888 10.877,9.837 10.71,10.672 10.211,12.141 9.349,12.33 7.94,12.638 7.725,10.824 7.447,9.873 7.315,10.921 6.753,12.732 5.186,11.521 4.326,10.856 4.366,9.026 4.31,8.028 3.372,10.695 2.212,8.522 2.102,6.75 0.675,8.937 -0.188,6.244 -0.3,4.773 -0.419,3.133 -0.158,1.353 0.109,-0.271" /></g><g
           transform="translate(472.6045,301.6367)"
           id="g326"><path
             id="path328"
             style="fill:#9f6020;fill-opacity:1;fill-rule:nonzero;stroke:none"
             d="m 0,0 c 0,-3.175 -0.554,-6.099 -1.651,-9.047 -0.804,-2.152 -1.329,-3.862 -1.434,-6.181 -0.08,-1.809 -1.366,-9.231 1.765,-9.482 0.349,-0.029 0.62,0.059 0.902,0.301 0.41,-1.441 2.68,-0.436 3.481,-0.066 0.563,-1.382 3.03,-0.73 3.779,0.002 0.61,-2.282 7.985,-0.029 6.802,2.388 -0.322,0.657 -1.317,0.419 -1.79,0.195 -0.842,-0.401 -1.073,-0.732 -2.085,-0.729 -0.733,0.003 -1.53,-0.103 -1.936,0.527 -0.394,0.606 -0.375,1.985 -0.44,2.705 -0.165,1.836 0.592,3.657 0.719,5.544 0.452,-0.973 0.7,-1.614 1.547,-2.288 0.575,-0.453 0.826,-0.809 1.273,-1.378 0.405,-0.515 0.763,-0.915 1.386,-1.061 0.367,-0.084 1.892,-0.185 2.201,-0.005 0.774,0.444 -0.867,3.298 -1.052,4.141 -0.387,1.754 -0.45,3.532 -0.532,5.351 -0.092,1.981 -0.089,3.736 -0.811,5.631 -0.644,1.693 -1.783,3.188 -1.477,5.035" /></g><g
           transform="translate(517.1982,425.7646)"
           id="g330"><path
             id="path332"
             style="fill:#ff3600;fill-opacity:1;fill-rule:nonzero;stroke:none"
             d="m 0,0 c 0,0 -21.711,-4.343 -30.658,-14.08 0,0 -12.896,-35.002 -13.947,-50.529 l -1.317,-61.055 13.947,0.789 2.106,58.424 12.37,29.212 2.631,-79.74 h 58.425 l -2.37,83.688 c 0,0 -0.263,-35.002 12.369,-43.686 0,0 13.949,-5.264 35.264,26.843 l -8.158,8.422 -20.263,-12.633 c 0,0 -6.843,41.054 -12.371,46.845 0,0 -18.289,8.947 -26.974,7.895 0,0 4.605,-15.791 -9.079,-16.053 C -1.71,-15.922 1.58,-4.474 0,0" /></g><g
           transform="translate(515.6201,453.2656)"
           id="g334"><path
             id="path336"
             style="fill:#000000;fill-opacity:1;fill-rule:nonzero;stroke:none"
             d="m 0,0 c 0.178,-0.368 0.772,-1.824 1.319,-1.723 0.811,0.15 0.522,2.355 0.524,2.94 0.003,2.961 -0.575,5.957 -0.371,8.905 2.638,-3.325 5.017,2.362 3.968,4.766 1.232,-0.89 2.964,-0.339 3.944,0.665 1.472,1.521 1.185,3.669 1.293,5.617 0.82,-0.182 1.794,-1.12 2.744,-0.753 1.046,0.403 1.054,1.93 2.241,2.074 0.525,-1.302 0.884,-2.367 2.468,-2.595 1.114,-0.16 2.166,0.322 2.766,1.258 -0.114,-2.495 3.399,-5.269 5.166,-2.502 -0.026,-1.132 -0.354,-2.673 0.744,-3.401 0.792,-0.523 1.911,-0.293 2.422,0.502 -2.089,-5.183 5.585,-3.397 3.818,0.547 1.642,-1.628 3.744,4.108 1.33,3.59 2.447,1.503 2.102,3.857 -0.816,3.947 1.321,1.576 -0.5,2.434 -1.963,2.369 -0.343,2.022 -2.353,2.981 -4.109,1.598 0.463,2.381 -2.514,3.969 -4.342,2.24 0.252,2.143 -3.262,1.179 -3.813,-0.01 1.027,2.057 -2.599,2.657 -3.813,1.717 -0.968,1.879 -5.113,2.205 -5.239,-0.42 1.277,0.895 -2.025,1.878 -2.789,1.837 C 6.044,33.087 4.192,32.01 4.058,30.417 2.327,30.598 0.129,30.133 -0.288,28.044 -3.649,29.341 -6.987,24.67 -4.609,21.869 -7.238,22.024 -8.146,19.316 -6.614,17.39 -9.019,16.874 -9.334,12.579 -6.62,12.507 -8.834,11.919 -7.892,8.945 -6.226,8.286 -7.391,7.928 -7.083,5.292 -5.539,5.506 -5.951,4.877 -6.732,1.499 -5.115,2.369 -6.09,3.012 -6.67,1.005 -6.198,0.29 c 0.363,-0.548 1.719,-0.874 2.352,-0.816 1.037,0.094 2.74,1.277 3.666,0.115 -0.137,0.066 -0.223,0.218 -0.347,0.28" /></g></g></g></g></svg>