<?xml version="1.0" encoding="UTF-8" standalone="no"?>
<svg
   xmlns:dc="http://purl.org/dc/elements/1.1/"
   xmlns:cc="http://creativecommons.org/ns#"
   xmlns:rdf="http://www.w3.org/1999/02/22-rdf-syntax-ns#"
   xmlns:svg="http://www.w3.org/2000/svg"
   xmlns="http://www.w3.org/2000/svg"
   viewBox="0 0 1122.52 793.70667"
   height="793.70667"
   width="1122.52"
   xml:space="preserve"
   id="svg2"
   version="1.1"><metadata
     id="metadata8"><rdf:RDF><cc:Work
         rdf:about=""><dc:format>image/svg+xml</dc:format><dc:type
           rdf:resource="http://purl.org/dc/dcmitype/StillImage" /></cc:Work></rdf:RDF></metadata><defs
     id="defs6"><clipPath
       id="clipPath18"
       clipPathUnits="userSpaceOnUse"><path
         id="path16"
         d="M 0,595.28 H 841.89 V 0 H 0 Z" /></clipPath><clipPath
       id="clipPath290"
       clipPathUnits="userSpaceOnUse"><path
         id="path288"
         d="m 376.78,407.062 h 32.665 V 355.825 H 376.78 Z" /></clipPath></defs><g
     transform="matrix(1.3333333,0,0,-1.3333333,0,793.70667)"
     id="g10"><g
       id="g12"><g
         clip-path="url(#clipPath18)"
         id="g14"><g
           transform="translate(249.666,380.4419)"
           id="g20"><path
             id="path22"
             style="fill:#42210b;fill-opacity:1;fill-rule:nonzero;stroke:none"
             d="m 0,0 c -13.89,-8.301 -14.637,2.554 -15.454,21.154 -1.252,28.523 -23.43,41.949 -38.007,42.207 v 0.012 c -0.07,0 -0.143,-0.006 -0.213,-0.006 -0.072,0 -0.145,0.006 -0.215,0.006 V 63.361 C -68.465,63.103 -90.645,49.677 -91.897,21.154 -92.713,2.554 -93.46,-8.301 -107.35,0 c -2.871,1.717 4.762,-38.238 53.606,-38.314 v -10e-4 c 0.024,0 0.046,10e-4 0.07,10e-4 0.023,0 0.045,-10e-4 0.068,-10e-4 v 10e-4 C -4.762,-38.238 2.872,1.717 0,0" /></g><g
           transform="translate(177.5879,346.1265)"
           id="g24"><path
             id="path26"
             style="fill:#29abe2;fill-opacity:1;fill-rule:nonzero;stroke:none"
             d="m 0,0 c 0,0 -24.085,-8.407 -37.718,-10.225 0,0 -19.54,-2.272 -30.9,-93.157 H 102.7 c 0,0 -13.178,83.614 -24.084,88.613 C 67.71,-9.77 41.805,-4.771 33.627,0 Z" /></g><g
           transform="translate(221.29,342.1484)"
           id="g28"><path
             id="path30"
             style="fill:#ed1c24;fill-opacity:1;fill-rule:nonzero;stroke:none"
             d="m 0,0 0.831,-42.146 c 0,0 -28.399,-33.353 -52.26,1.817 l -0.372,41.628 c -4.151,-1.322 -9.443,-2.933 -14.779,-4.355 l -2.117,-96.348 H 17.19 V -4.939 C 11.296,-3.28 5.163,-1.631 0,0" /></g><g
           transform="translate(225.7568,382.5708)"
           id="g32"><path
             id="path34"
             style="fill:#fcb266;fill-opacity:1;fill-rule:nonzero;stroke:none"
             d="m 0,0 c 0,-16.438 -13.327,-29.765 -29.766,-29.765 -16.438,0 -29.765,13.327 -29.765,29.765 v 25.902 c 0,16.438 13.327,29.765 29.765,29.765 C -13.327,55.667 0,42.34 0,25.902 Z" /></g><g
           transform="translate(211.2148,338.3105)"
           id="g36"><path
             id="path38"
             style="fill:#fcb266;fill-opacity:1;fill-rule:nonzero;stroke:none"
             d="m 0,0 c 0,-8.784 -7.122,-15.905 -15.906,-15.905 -8.784,0 -15.904,7.121 -15.904,15.905 v 18.632 c 0,8.784 7.12,15.905 15.904,15.905 C -7.122,34.537 0,27.416 0,18.632 Z" /></g><g
           transform="translate(192.708,413.7886)"
           id="g40"><path
             id="path42"
             style="fill:#42210b;fill-opacity:1;fill-rule:nonzero;stroke:none"
             d="m 0,0 c 9.374,0.744 17.335,9.276 19.985,12.906 0,0 13.084,-15.891 14.459,-22.855 0.024,0.56 0.038,1.124 0.038,1.69 0,18.934 -13.872,34.285 -30.985,34.285 -17.111,0 -30.985,-15.351 -30.985,-34.285 C -27.451,-9.893 -18.961,-1.506 0,0" /></g><g
           transform="translate(176,391.5303)"
           id="g44"><path
             id="path46"
             style="fill:#fcb266;fill-opacity:1;fill-rule:nonzero;stroke:none"
             d="m 0,0 c 0,-4.28 -3.47,-7.75 -7.75,-7.75 -4.28,0 -7.75,3.47 -7.75,7.75 0,4.28 3.47,7.75 7.75,7.75 C -3.47,7.75 0,4.28 0,0" /></g><g
           transform="translate(230.25,391.5303)"
           id="g48"><path
             id="path50"
             style="fill:#fcb266;fill-opacity:1;fill-rule:nonzero;stroke:none"
             d="m 0,0 c 0,-4.28 -3.47,-7.75 -7.75,-7.75 -4.28,0 -7.75,3.47 -7.75,7.75 0,4.28 3.47,7.75 7.75,7.75 C -3.47,7.75 0,4.28 0,0" /></g><path
           id="path52"
           style="fill:#998675;fill-opacity:1;fill-rule:nonzero;stroke:none"
           d="M 841.89,215.991 H 0 v 26.753 h 841.89 z" /><path
           id="path54"
           style="fill:#998675;fill-opacity:1;fill-rule:nonzero;stroke:none"
           d="M 841.89,0 H 0 v 215.991 h 841.89 z" /><path
           id="path56"
           style="fill:#42210b;fill-opacity:1;fill-rule:nonzero;stroke:none"
           d="M 841.89,202.991 H 0 v 13 h 841.89 z" /><g
           transform="translate(48.0127,282.9912)"
           id="g58"><path
             id="path60"
             style="fill:#f7931e;fill-opacity:1;fill-rule:nonzero;stroke:none"
             d="M 0,0 H -11.333 V 8 L 0,4 Z" /></g><g
           transform="translate(65.2905,278.3916)"
           id="g62"><path
             id="path64"
             style="fill:#f7931e;fill-opacity:1;fill-rule:nonzero;stroke:none"
             d="M 0,0 H -11.333 V 8 L 0,4 Z" /></g><g
           transform="translate(80.8433,274.9912)"
           id="g66"><path
             id="path68"
             style="fill:#f7931e;fill-opacity:1;fill-rule:nonzero;stroke:none"
             d="M 0,0 H -11.333 V 8 L 0,4 Z" /></g><g
           transform="translate(96.1821,271.8135)"
           id="g70"><path
             id="path72"
             style="fill:#f7931e;fill-opacity:1;fill-rule:nonzero;stroke:none"
             d="M 0,0 H -11.333 V 8 L 0,4 Z" /></g><g
           transform="translate(115.4824,242.7441)"
           id="g74"><path
             id="path76"
             style="fill:#4d4d4d;fill-opacity:1;fill-rule:nonzero;stroke:none"
             d="M 0,0 H -94.97 V 48.247 L 0,27.011 Z" /></g><path
           id="path78"
           style="fill:#4d4d4d;fill-opacity:1;fill-rule:nonzero;stroke:none"
           d="m 13.513,242.744 h 7 v 109.972 h -7 z" /><path
           id="path80"
           style="fill:#4d4d4d;fill-opacity:1;fill-rule:nonzero;stroke:none"
           d="m 23.513,297.73 h -13 v 81.261 h 13 z" /><g
           transform="translate(726.0596,255.7373)"
           id="g82"><path
             id="path84"
             style="fill:#eaa672;fill-opacity:1;fill-rule:nonzero;stroke:none"
             d="m 0,0 4.715,-11.229 c 2.052,-4.866 7.268,-7.789 11.657,-6.519 4.389,1.271 6.288,6.241 4.242,11.109 L 15.895,4.594 Z" /></g><g
           transform="translate(748.1885,254.0234)"
           id="g86"><path
             id="path88"
             style="fill:#eaa672;fill-opacity:1;fill-rule:nonzero;stroke:none"
             d="M 0,0 C 0.855,-0.452 1.153,-1.407 0.65,-2.129 0.158,-2.854 -0.945,-3.07 -1.801,-2.621 l -5.422,2.858 c -0.853,0.45 -1.146,1.399 -0.648,2.125 0.499,0.722 1.596,0.946 2.449,0.491 z" /></g><g
           transform="translate(711.4141,419.0684)"
           id="g90"><path
             id="path92"
             style="fill:#562134;fill-opacity:1;fill-rule:nonzero;stroke:none"
             d="M 0,0 C 20.879,27.388 -4.932,86.282 -44.767,83.616 -81.286,81.172 -105.812,24.107 -82.308,0 -65.786,-16.948 -14.355,-18.823 0,0" /></g><g
           transform="translate(694.3965,435.9087)"
           id="g94"><path
             id="path96"
             style="fill:#fcb266;fill-opacity:1;fill-rule:nonzero;stroke:none"
             d="m 0,0 c 0,-15.513 -12.576,-28.085 -28.085,-28.085 -15.513,0 -28.085,12.572 -28.085,28.085 v 27.082 c 0,15.51 12.572,28.087 28.085,28.087 C -12.576,55.169 0,42.592 0,27.082 Z" /></g><g
           transform="translate(651.2656,404.8125)"
           id="g98"><path
             id="path100"
             style="fill:#b41a00;fill-opacity:1;fill-rule:nonzero;stroke:none"
             d="m 0,0 c 0,0 -1.005,-4.014 -13.039,-8.525 -12.037,-4.517 -33.479,-6.521 -35.361,-28.715 -1.879,-22.191 -3.76,-78.614 -3.76,-78.614 0,0 2.258,-12.791 10.279,-13.042 8.026,-0.249 40.626,2.007 40.626,2.007 l -5.016,25.829 -21.816,0.252 3.512,23.57 5.264,-21.065 -14.044,-62.441 h 93.104 c 0,0 -13.355,51.659 -12.103,58.681 1.253,7.021 7.271,21.691 7.271,21.691 l 18.557,-73.601 22.069,6.268 -23.322,119.369 c 0,0 -2.759,17.803 -29.09,19.31 0,0 -7.774,3.51 -10.029,7.268 z" /></g><g
           transform="translate(684.3672,385.7524)"
           id="g102"><path
             id="path104"
             style="fill:#fcb266;fill-opacity:1;fill-rule:nonzero;stroke:none"
             d="m 0,0 c 0,-9.141 -7.412,-16.549 -16.553,-16.549 -9.14,0 -16.549,7.408 -16.549,16.549 v 27.084 c 0,9.141 7.409,16.553 16.549,16.553 C -7.412,43.637 0,36.225 0,27.084 Z" /></g><g
           transform="translate(651.2656,404.8125)"
           id="g106"><path
             id="path108"
             style="fill:#d23200;fill-opacity:1;fill-rule:nonzero;stroke:none"
             d="m 0,0 c 0,0 -5.769,-9.78 16.549,-41.127 l -24.824,18.557 6.019,7.272 -8.527,-0.5 1.465,8.801 c 0,0 8.063,4.238 9.318,6.997" /></g><g
           transform="translate(684.3672,403.0547)"
           id="g110"><path
             id="path112"
             style="fill:#d23200;fill-opacity:1;fill-rule:nonzero;stroke:none"
             d="m 0,0 c 0,0 6.499,-6.956 10.029,-7.269 v -7.024 l -6.017,-1.755 1.001,-6.267 -21.566,-17.055 c 0,0 23.073,27.586 16.553,39.37" /></g><g
           transform="translate(701.1309,341.5732)"
           id="g114"><path
             id="path116"
             style="fill:#ffffff;fill-opacity:1;fill-rule:nonzero;stroke:none"
             d="m 0,0 c 0,-7.783 -6.306,-14.088 -14.087,-14.088 -7.781,0 -14.09,6.305 -14.09,14.088 0,7.779 6.309,14.086 14.09,14.086 C -6.306,14.086 0,7.779 0,0" /></g><path
           id="path118"
           style="fill:#ffffff;fill-opacity:1;fill-rule:nonzero;stroke:none"
           d="m 688.674,353.434 h -3.263 v 11.12 h 3.263 z" /><g
           transform="translate(682.751,348.0029)"
           id="g120"><path
             id="path122"
             style="fill:#000000;fill-opacity:1;fill-rule:nonzero;stroke:none"
             d="m 0,0 c 1.221,1.199 2.623,1.777 4.092,1.777 2.804,0 4.493,-1.868 4.493,-4.135 0,-1.382 -0.824,-2.627 -1.736,-3.227 -0.087,-0.043 -0.065,-0.09 -0.065,-0.11 0,-0.047 0.045,-0.047 0.112,-0.09 1.755,-0.936 2.647,-2.423 2.647,-4.248 0,-2.871 -2.159,-5.181 -5.317,-5.181 -1.76,0 -3.27,0.733 -4.448,1.868 l 1.223,2.224 c 0.934,-0.936 1.979,-1.536 3.136,-1.536 1.69,0 2.803,1.247 2.803,2.692 0,1.644 -1.379,2.757 -3.205,2.889 L 2.49,-7.03 v 2.202 l 0.98,0.042 c 1.692,0.137 2.537,1.16 2.537,2.314 0,0.871 -0.67,1.783 -2.071,1.783 -0.999,0 -2.044,-0.581 -2.89,-1.47 z" /></g><g
           transform="translate(647.0654,446.583)"
           id="g124"><path
             id="path126"
             style="fill:#fcb266;fill-opacity:1;fill-rule:nonzero;stroke:none"
             d="m 0,0 c 0,-4.659 -2.948,-8.436 -6.583,-8.436 -3.639,0 -6.585,3.777 -6.585,8.436 0,4.661 2.946,8.438 6.585,8.438 C -2.948,8.438 0,4.661 0,0" /></g><g
           transform="translate(698.5654,446.583)"
           id="g128"><path
             id="path130"
             style="fill:#fcb266;fill-opacity:1;fill-rule:nonzero;stroke:none"
             d="m 0,0 c 0,-4.659 -2.949,-8.436 -6.585,-8.436 -3.637,0 -6.582,3.777 -6.582,8.436 0,4.661 2.945,8.438 6.582,8.438 C -2.949,8.438 0,4.661 0,0" /></g><g
           transform="translate(640.3037,447.1406)"
           id="g132"><path
             id="path134"
             style="fill:#562134;fill-opacity:1;fill-rule:nonzero;stroke:none"
             d="m 0,0 c 0,0 1.044,0.565 4.079,16.323 2.77,14.368 17.981,6.885 27.848,0.437 14.7,-9.607 27.011,-11.475 27.011,-11.475 0,0 10.889,42.492 -29.766,42.778 C -13.904,48.364 0,0 0,0" /></g><g
           transform="translate(657.3838,317.5967)"
           id="g136"><path
             id="path138"
             style="fill:#ffffff;fill-opacity:1;fill-rule:nonzero;stroke:none"
             d="m 0,0 c 0,0 -1.942,-50.766 -10.486,-57.266 0,0 19.88,3.288 26.056,0 0,0 -4.944,49.36 4.697,54.3 z" /></g><g
           transform="translate(646.8975,282.4238)"
           id="g140"><path
             id="path142"
             style="fill:#eaa672;fill-opacity:1;fill-rule:nonzero;stroke:none"
             d="m 0,0 15.013,-0.675 c 6.509,-0.283 11.836,3.269 11.894,7.946 0.052,4.673 -5.174,8.697 -11.681,8.989 L 0.209,16.932 Z" /></g><g
           transform="translate(656.8174,302.3252)"
           id="g144"><path
             id="path146"
             style="fill:#eaa672;fill-opacity:1;fill-rule:nonzero;stroke:none"
             d="m 0,0 c 0.843,0.597 2.082,0.443 2.757,-0.354 0.684,-0.788 0.55,-1.917 -0.283,-2.513 l -5.327,-3.776 c -0.84,-0.592 -2.071,-0.432 -2.757,0.359 -0.678,0.792 -0.55,1.92 0.289,2.513 z" /></g><g
           transform="translate(398.8716,443.6782)"
           id="g148"><path
             id="path150"
             style="fill:#fcb266;fill-opacity:1;fill-rule:nonzero;stroke:none"
             d="m 0,0 c 0,0 -26.167,-57.785 -24.35,-74.14 1.817,-16.354 20.715,-50.516 20.715,-50.516 l 13.084,5.088 c 0,0 -13.447,45.065 -13.81,51.244 -0.364,6.178 16.354,22.895 16.354,22.895 0,0 10.176,33.7 3.271,40.291 C 8.359,1.454 0,0 0,0" /></g><g
           transform="translate(398.3608,465.0181)"
           id="g152"><path
             id="path154"
             style="fill:#58453f;fill-opacity:1;fill-rule:evenodd;stroke:none"
             d="m 0,0 c -2.804,3.76 -0.937,7.369 3.292,9.76 6.096,3.447 4.57,8.837 -2.949,12.282 -7.523,3.446 -8.943,13.796 -1.015,19.504 7.927,5.705 9.954,10.287 4.362,18.044 -5.592,7.76 -1.398,20.896 7.143,22.618 8.538,1.722 7.249,2.736 9.07,9.564 3.17,11.875 16.837,20.937 24.157,13.18 10.462,12.806 33.99,3.029 38.249,-8.819 4.513,-12.556 8.598,-12.43 15.308,-15.9 6.71,-3.469 8.902,-19.122 3.811,-25.65 C 94.7,45.95 98.405,42.1 106.637,38.007 114.871,33.914 112.853,27.873 106.298,24.482 99.744,21.093 95.677,15.04 101.774,11.593 106.239,9.066 107.556,5.468 105.837,-0.028 97.679,-26.079 22.639,-30.375 0,0" /></g><g
           transform="translate(479.5527,500.4341)"
           id="g156"><path
             id="path158"
             style="fill:#fcb266;fill-opacity:1;fill-rule:nonzero;stroke:none"
             d="m 0,0 c 0,-15.556 -12.609,-28.166 -28.166,-28.166 -15.555,0 -28.166,12.61 -28.166,28.166 v 27.015 c 0,15.555 12.611,28.166 28.166,28.166 C -12.609,55.181 0,42.57 0,27.015 Z" /></g><g
           transform="translate(465.0156,449.5542)"
           id="g160"><path
             id="path162"
             style="fill:#fcb266;fill-opacity:1;fill-rule:nonzero;stroke:none"
             d="m 0,0 c 0,-7.527 -6.102,-13.629 -13.629,-13.629 -7.527,0 -13.629,6.102 -13.629,13.629 v 29.921 c 0,7.528 6.102,13.629 13.629,13.629 C -6.102,43.55 0,37.449 0,29.921 Z" /></g><g
           transform="translate(430.1289,456.3911)"
           id="g164"><path
             id="path166"
             style="fill:#0071bc;fill-opacity:1;fill-rule:nonzero;stroke:none"
             d="m 0,0 c 0,0 -12.602,-3.991 -18.901,-4.475 -6.3,-0.484 -12.356,-8.238 -12.356,-8.238 0,0 21.442,-13.809 11.993,-45.429 0,0 12.356,-37.069 12.356,-45.065 0,-7.995 -14.763,-31.697 -9.086,-63.599 5.679,-31.904 9.086,-46.156 9.086,-46.156 h 71.232 c 0,0 8.36,64.69 3.635,79.591 -4.725,14.9 -13.084,28.043 -13.084,28.043 0,0 8.247,45.082 9.7,48.717 1.455,3.634 -8.608,43.172 8.109,46.806 0,0 -12.356,9.813 -25.077,7.269 0,0 -12.074,-20.594 -23.259,-17.93 C 13.162,-17.802 5.668,-19.492 0,0" /></g><g
           transform="translate(494.0898,310.6626)"
           id="g168"><path
             id="path170"
             style="fill:#b41a00;fill-opacity:1;fill-rule:nonzero;stroke:none"
             d="m 0,0 c -2.906,13.084 -9.086,34.518 -9.813,39.247 -0.726,4.729 -5.451,46.159 -1.453,56.699 3.998,10.539 9.934,45.523 9.934,45.523 l -8.516,2.043 c 0,0 -7.232,-42.115 -12.683,-47.566 -5.453,-5.451 -32.346,-19.989 -41.795,7.269 -6.283,18.123 -8.869,32.222 -9.897,39.64 -3.091,-0.758 -6.278,-1.417 -8.61,-1.599 2.473,-11.202 8.694,-40.114 8.694,-47.491 0,-9.206 2.409,-45.379 2.409,-45.379 0,0 -10e-4,-0.005 -10e-4,-0.006 0.538,-2.521 0.862,-4.57 0.862,-5.859 0,-2.092 -1.016,-5.271 -2.407,-9.38 -1.194,-13.276 -2.405,-31.335 -0.863,-37.501 2.543,-10.177 7.268,-38.524 12.719,-53.788 h 55.969 c 0,0 8.359,45.065 5.451,58.148" /></g><g
           transform="translate(481.2559,494.4092)"
           id="g172"><path
             id="path174"
             style="fill:#58453f;fill-opacity:1;fill-rule:evenodd;stroke:none"
             d="M 0,0 C -6.76,-12.69 27.184,32.078 -2.059,61.779 -19.514,79.515 -48.444,78.271 -59.75,58.583 -54.217,50.202 -42.379,42.718 -28.505,43.006 -4.917,43.5 -30.331,28.661 -11.119,26.131 2.871,24.288 0.144,21.751 -6.698,14.101 -11.486,8.745 -10.129,1.77 0,0" /></g><g
           transform="translate(434.6211,552.5913)"
           id="g176"><path
             id="path178"
             style="fill:#58453f;fill-opacity:1;fill-rule:evenodd;stroke:none"
             d="m 0,0 c -2.632,-10.813 1.74,-19.232 -7.179,-20.289 -11.604,-1.375 -6.08,-8.666 -6.975,-17.619 C -20.561,-29.925 -22.625,5.554 0,0" /></g><g
           transform="translate(440.125,438.5303)"
           id="g180"><path
             id="path182"
             style="fill:#fcb266;fill-opacity:1;fill-rule:nonzero;stroke:none"
             d="m 0,0 c 16,-9.5 29.5,-2.605 37.611,15.325 -7.64,0.798 -15.903,6.758 -15.903,6.758 L 0.042,23.25 C -5.624,17.583 -9.996,17.861 -9.996,17.861 -11.125,13.5 -2.262,1.343 0,0" /></g><path
           id="path184"
           style="fill:#cccccc;fill-opacity:1;fill-rule:nonzero;stroke:none"
           d="M 423.221,339.738 H 403.96 v 13.446 h 19.261 z" /><path
           id="path186"
           style="fill:#cccccc;fill-opacity:1;fill-rule:nonzero;stroke:none"
           d="m 458.475,356.456 h -83.953 v -3.271 h 83.953 z" /><g
           transform="translate(463.1992,257.9658)"
           id="g188"><path
             id="path190"
             style="fill:#cccccc;fill-opacity:1;fill-rule:nonzero;stroke:none"
             d="m 0,0 c 0,-8.029 -6.51,-14.537 -14.537,-14.537 h -70.87 c -8.028,0 -14.537,6.508 -14.537,14.537 v 67.235 c 0,8.028 6.509,14.537 14.537,14.537 h 70.87 C -6.51,81.772 0,75.263 0,67.235 Z" /></g><g
           transform="translate(414.1353,328.4253)"
           id="g192"><path
             id="path194"
             style="fill:#808080;fill-opacity:1;fill-rule:nonzero;stroke:none"
             d="m 0,0 c -19.212,0 -34.843,-15.631 -34.843,-34.844 0,-19.212 15.631,-34.842 34.843,-34.842 19.212,0 34.843,15.63 34.843,34.842 C 34.843,-15.631 19.212,0 0,0 m 0,-72.686 c -20.867,0 -37.843,16.976 -37.843,37.842 C -37.843,-13.977 -20.867,3 0,3 20.867,3 37.843,-13.977 37.843,-34.844 37.843,-55.71 20.867,-72.686 0,-72.686" /></g><g
           transform="translate(414.1353,297.897)"
           id="g196"><path
             id="path198"
             style="fill:#808080;fill-opacity:1;fill-rule:nonzero;stroke:none"
             d="m 0,0 c -2.379,0 -4.314,-1.936 -4.314,-4.316 0,-2.379 1.935,-4.314 4.314,-4.314 2.379,0 4.315,1.935 4.315,4.314 C 4.315,-1.936 2.379,0 0,0 m 0,-11.63 c -4.033,0 -7.314,3.281 -7.314,7.314 C -7.314,-0.282 -4.033,3 0,3 4.034,3 7.315,-0.282 7.315,-4.316 7.315,-8.349 4.034,-11.63 0,-11.63" /></g><g
           transform="translate(416.5376,298.873)"
           id="g200"><path
             id="path202"
             style="fill:#808080;fill-opacity:1;fill-rule:nonzero;stroke:none"
             d="M 0,0 21.295,9.907 2.992,-3.127 Z" /></g><path
           id="path204"
           style="fill:#808080;fill-opacity:1;fill-rule:nonzero;stroke:none"
           d="m 414.09,322.03 h -1 v 5.25 h 1 z" /><g
           transform="translate(396.5684,315.9829)"
           id="g206"><path
             id="path208"
             style="fill:#808080;fill-opacity:1;fill-rule:nonzero;stroke:none"
             d="M 0,0 -3.086,4.248 -2.277,4.835 0.809,0.588 Z" /></g><g
           transform="translate(386.7559,301.3789)"
           id="g210"><path
             id="path212"
             style="fill:#808080;fill-opacity:1;fill-rule:nonzero;stroke:none"
             d="M 0,0 -4.993,1.623 -4.685,2.574 0.309,0.951 Z" /></g><g
           transform="translate(382.4087,282.1738)"
           id="g214"><path
             id="path216"
             style="fill:#808080;fill-opacity:1;fill-rule:nonzero;stroke:none"
             d="M 0,0 -0.31,0.951 4.684,2.574 4.993,1.623 Z" /></g><g
           transform="translate(395.1733,265.7031)"
           id="g218"><path
             id="path220"
             style="fill:#808080;fill-opacity:1;fill-rule:nonzero;stroke:none"
             d="M 0,0 -0.81,0.588 2.276,4.837 3.086,4.249 Z" /></g><path
           id="path222"
           style="fill:#808080;fill-opacity:1;fill-rule:nonzero;stroke:none"
           d="m 415.181,259.882 h -1 v 5.252 h 1 z" /><g
           transform="translate(433.9805,266.3447)"
           id="g224"><path
             id="path226"
             style="fill:#808080;fill-opacity:1;fill-rule:nonzero;stroke:none"
             d="M 0,0 -3.087,4.249 -2.278,4.837 0.809,0.588 Z" /></g><g
           transform="translate(446.2002,283.2109)"
           id="g228"><path
             id="path230"
             style="fill:#808080;fill-opacity:1;fill-rule:nonzero;stroke:none"
             d="M 0,0 -4.996,1.623 -4.687,2.574 0.309,0.951 Z" /></g><g
           transform="translate(441.1748,302.415)"
           id="g232"><path
             id="path234"
             style="fill:#808080;fill-opacity:1;fill-rule:nonzero;stroke:none"
             d="M 0,0 -0.309,0.951 4.687,2.575 4.996,1.624 Z" /></g><g
           transform="translate(430.8184,316.6216)"
           id="g236"><path
             id="path238"
             style="fill:#808080;fill-opacity:1;fill-rule:nonzero;stroke:none"
             d="M 0,0 -0.809,0.588 2.278,4.838 3.087,4.25 Z" /></g><g
           transform="translate(429.5264,510.9111)"
           id="g240"><path
             id="path242"
             style="fill:#fcb266;fill-opacity:1;fill-rule:nonzero;stroke:none"
             d="m 0,0 c 0,-5.786 -2.506,-10.477 -5.597,-10.477 -3.09,0 -5.596,4.691 -5.596,10.477 0,5.786 2.506,10.477 5.596,10.477 C -2.506,10.477 0,5.786 0,0" /></g><g
           transform="translate(396.5015,395.6758)"
           id="g244"><path
             id="path246"
             style="fill:#92d125;fill-opacity:1;fill-rule:nonzero;stroke:none"
             d="m 0,0 c -3.437,-2.962 -7.83,-8.566 -10.361,-10.309 -0.782,-0.538 -1.389,-0.707 -1.729,-0.312 -0.088,0.101 -0.173,0.228 -0.254,0.38 -0.233,0.451 -0.431,1.117 -0.542,1.954 -0.483,3.585 0.607,10.263 6.983,16.143 4.202,3.874 9.566,3.883 11.25,2.381 C 5.412,10.182 5.474,10.121 5.528,10.059 6.976,8.381 4.497,3.877 0,0" /></g><g
           transform="translate(417.9136,404.8442)"
           id="g248"><path
             id="path250"
             style="fill:#92d125;fill-opacity:1;fill-rule:nonzero;stroke:none"
             d="m 0,0 c -1.445,-1.676 1.031,-6.18 5.532,-10.059 4.5,-3.879 10.642,-12.294 12.088,-10.618 C 19.065,-19 19.799,-9.915 11.432,-2.203 7.065,1.824 1.444,1.676 0,0" /></g><g
           transform="translate(435.0391,381.4702)"
           id="g252"><path
             id="path254"
             style="fill:#69bc1b;fill-opacity:1;fill-rule:nonzero;stroke:none"
             d="m 0,0 c 0,-13.466 -10.406,-24.508 -23.612,-25.521 -0.655,-0.048 -1.314,-0.074 -1.982,-0.074 -0.507,0 -1.01,0.016 -1.509,0.045 h -0.004 c -13.43,0.782 -24.08,11.922 -24.08,25.55 0,1.35 0.104,2.674 0.306,3.965 0.074,0.471 0.159,0.937 0.259,1.398 1.934,9.073 8.674,16.364 17.431,19.08 2.399,0.746 4.952,1.148 7.597,1.148 3.224,0 6.313,-0.597 9.156,-1.687 C -8.355,20.809 -2.246,13.731 -0.502,5.078 -0.334,4.228 -0.205,3.364 -0.119,2.489 -0.039,1.671 0,0.84 0,0" /></g><g
           transform="translate(411.3882,373.7817)"
           id="g256"><path
             id="path258"
             style="fill:#b0e874;fill-opacity:1;fill-rule:nonzero;stroke:none"
             d="m 0,0 c 0,-9.864 -0.87,-17.86 -1.943,-17.86 -1.074,0 -1.944,7.996 -1.944,17.86 0,9.864 0.87,17.86 1.944,17.86 C -0.87,17.86 0,9.864 0,0" /></g><g
           transform="translate(404.2388,378.5332)"
           id="g260"><path
             id="path262"
             style="fill:#b0e874;fill-opacity:1;fill-rule:nonzero;stroke:none"
             d="M 0,0 C -2.926,2.925 -5.039,5.555 -4.721,5.873 -4.402,6.192 -1.772,4.078 1.152,1.153 4.077,-1.772 6.19,-4.401 5.873,-4.72 5.555,-5.038 2.925,-2.925 0,0" /></g><g
           transform="translate(403.5405,367.877)"
           id="g264"><path
             id="path266"
             style="fill:#b0e874;fill-opacity:1;fill-rule:nonzero;stroke:none"
             d="M 0,0 C -2.925,2.925 -5.039,5.555 -4.721,5.873 -4.402,6.191 -1.772,4.078 1.152,1.153 4.078,-1.772 6.191,-4.402 5.873,-4.72 5.555,-5.039 2.925,-2.925 0,0" /></g><g
           transform="translate(414.9399,378.5332)"
           id="g268"><path
             id="path270"
             style="fill:#b0e874;fill-opacity:1;fill-rule:nonzero;stroke:none"
             d="M 0,0 C 2.926,2.925 5.039,5.555 4.721,5.873 4.402,6.192 1.772,4.078 -1.152,1.153 -4.078,-1.772 -6.191,-4.401 -5.873,-4.72 -5.555,-5.038 -2.925,-2.925 0,0" /></g><g
           transform="translate(415.6382,367.877)"
           id="g272"><path
             id="path274"
             style="fill:#b0e874;fill-opacity:1;fill-rule:nonzero;stroke:none"
             d="M 0,0 C 2.925,2.925 5.038,5.555 4.721,5.873 4.402,6.191 1.772,4.078 -1.152,1.153 -4.078,-1.772 -6.191,-4.402 -5.873,-4.72 -5.555,-5.039 -2.926,-2.925 0,0" /></g><g
           transform="translate(407.9321,355.9204)"
           id="g276"><path
             id="path278"
             style="fill:#92d125;fill-opacity:1;fill-rule:nonzero;stroke:none"
             d="m 0,0 c -0.396,-0.036 -35.238,-2.989 -30.754,26.919 0.866,5.789 3.294,6.545 6.438,4.549 0.262,-0.165 0.529,-0.35 0.801,-0.555 0.555,-0.418 1.133,-0.912 1.723,-1.466 C -13.638,21.776 -2.684,1.989 0,0" /></g><g
           transform="translate(411.3882,355.9214)"
           id="g280"><path
             id="path282"
             style="fill:#92d125;fill-opacity:1;fill-rule:nonzero;stroke:none"
             d="M 0,0 C 0,0 35.266,-3.161 30.756,26.917 27.62,47.845 4.1,3.019 0,0" /></g><g
           id="g284"><g
             id="g286" /><g
             id="g298"><g
               style="opacity:0.5"
               id="g296"
               clip-path="url(#clipPath290)"><g
                 id="g294"
                 transform="translate(409.4448,407.0615)"><path
                   id="path292"
                   style="fill:#ffffff;fill-opacity:1;fill-rule:nonzero;stroke:none"
                   d="m 0,0 v -51.187 c -0.507,0 -1.01,0.017 -1.509,0.046 h -0.004 c -0.395,-0.036 -35.238,-2.989 -30.754,26.919 0.867,5.788 3.294,6.545 6.438,4.549 -0.483,3.585 0.607,10.263 6.983,16.143 4.202,3.874 9.566,3.884 11.249,2.382 C -5.198,-0.402 -2.645,0 0,0" /></g></g></g></g><g
           transform="translate(502.8125,446.5864)"
           id="g300"><path
             id="path302"
             style="fill:#fcb266;fill-opacity:1;fill-rule:nonzero;stroke:none"
             d="m 0,0 c 0,0 24.35,-62.146 19.988,-70.143 -4.361,-7.995 -73.901,-14.074 -73.901,-14.074 l -0.234,13.97 48.333,11.734 -2.702,13.102 c 0,0 -8.302,42.105 8.516,45.411" /></g><g
           transform="translate(448.8994,362.3696)"
           id="g304"><path
             id="path306"
             style="fill:#fcb266;fill-opacity:1;fill-rule:nonzero;stroke:none"
             d="m 0,0 -12.095,-1.035 c -5.24,-0.444 -9.542,2.319 -9.608,6.177 -0.063,3.858 4.136,7.345 9.376,7.794 l 12.093,1.034 z" /></g><g
           transform="translate(440.8301,378.4824)"
           id="g308"><path
             id="path310"
             style="fill:#fcb266;fill-opacity:1;fill-rule:nonzero;stroke:none"
             d="m 0,0 c -0.678,0.465 -1.677,0.295 -2.222,-0.384 -0.545,-0.671 -0.436,-1.599 0.241,-2.063 L 2.323,-5.39 c 0.676,-0.468 1.671,-0.294 2.217,0.379 0.547,0.676 0.439,1.603 -0.24,2.068 z" /></g><g
           transform="translate(199.3745,71.9893)"
           id="g312"><path
             id="path314"
             style="fill:#faac56;fill-opacity:1;fill-rule:nonzero;stroke:none"
             d="M 0,0 H 91.918 L 79.645,5.248 41.481,21.564 v 30.224 4.941 H 0 L 4.881,51.788 29.246,27.129 5.131,5.248 Z" /></g><g
           transform="translate(240.8555,153.5244)"
           id="g316"><path
             id="path318"
             style="fill:#fdc689;fill-opacity:1;fill-rule:nonzero;stroke:none"
             d="m 0,0 v -6.068 -47.357 -6.546 H 337.524 V -53.425 -6.068 0 Z" /></g><g
           transform="translate(590.6123,99.1182)"
           id="g320"><path
             id="path322"
             style="fill:#faac56;fill-opacity:1;fill-rule:nonzero;stroke:none"
             d="m 0,0 24.366,24.659 4.884,4.942 H -12.232 V 24.659 -5.564 l -38.166,-16.317 -12.274,-5.248 H 29.25 l -5.134,5.248 z" /></g><g
           transform="translate(564.9316,93.5537)"
           id="g324"><path
             id="path326"
             style="fill:#58595b;fill-opacity:1;fill-rule:nonzero;stroke:none"
             d="m 0,0 h -36.991 v -15.813 -5.751 L 13.448,0 Z" /></g><g
           transform="translate(240.8555,93.5537)"
           id="g328"><path
             id="path330"
             style="fill:#58595b;fill-opacity:1;fill-rule:nonzero;stroke:none"
             d="M 0,0 50.438,-21.564 V -15.813 0 H 13.449 Z" /></g><g
           transform="translate(271.3169,127.6328)"
           id="g332"><path
             id="path334"
             style="fill:#1b1464;fill-opacity:1;fill-rule:nonzero;stroke:none"
             d="m 0,0 c 0,-0.144 0.071,-0.215 0.25,-0.215 h 2.212 c 3.282,0 4.067,2.498 4.067,4.068 0,1.569 -0.785,3.888 -4.067,3.888 H 0.25 C 0.071,7.741 0,7.634 0,7.456 Z m -4.174,11.879 h 7.099 c 4.567,0 7.778,-3.496 7.778,-8.026 0,-4.532 -3.211,-8.206 -7.778,-8.206 H 0.214 C 0.071,-4.353 0,-4.424 0,-4.566 v -10.311 h -4.174 z" /></g><g
           transform="translate(289.479,117.1084)"
           id="g336"><path
             id="path338"
             style="fill:#1b1464;fill-opacity:1;fill-rule:nonzero;stroke:none"
             d="M 0,0 C 0,-0.143 0.071,-0.214 0.214,-0.214 H 9.775 V -4.353 H -4.138 V 22.403 H 9.775 V 18.229 H 0.214 C 0.071,18.229 0,18.194 0,18.052 V 11.345 C 0,11.202 0.071,11.166 0.214,11.166 H 9.775 V 6.992 H 0.214 C 0.071,6.992 0,6.921 0,6.813 Z" /></g><g
           transform="translate(316.2388,116.6084)"
           id="g340"><path
             id="path342"
             style="fill:#1b1464;fill-opacity:1;fill-rule:nonzero;stroke:none"
             d="m 0,0 c 5.244,0 9.489,4.281 9.489,9.525 0,5.245 -4.245,9.491 -9.489,9.491 -5.245,0 -9.525,-4.246 -9.525,-9.491 C -9.525,4.281 -5.245,0 0,0 m 0,23.189 c 7.563,0 13.664,-6.1 13.664,-13.664 C 13.664,1.963 7.563,-4.138 0,-4.138 c -7.563,0 -13.664,6.101 -13.664,13.663 0,7.564 6.101,13.664 13.664,13.664" /></g><g
           transform="translate(337.3643,127.6328)"
           id="g344"><path
             id="path346"
             style="fill:#1b1464;fill-opacity:1;fill-rule:nonzero;stroke:none"
             d="m 0,0 c 0,-0.144 0.071,-0.215 0.25,-0.215 h 2.212 c 3.282,0 4.067,2.498 4.067,4.068 0,1.569 -0.785,3.888 -4.067,3.888 H 0.25 C 0.071,7.741 0,7.634 0,7.456 Z m -4.174,11.879 h 7.099 c 4.567,0 7.778,-3.496 7.778,-8.026 0,-4.532 -3.211,-8.206 -7.778,-8.206 H 0.214 C 0.071,-4.353 0,-4.424 0,-4.566 v -10.311 h -4.174 z" /></g><g
           transform="translate(364.9805,116.8945)"
           id="g348"><path
             id="path350"
             style="fill:#1b1464;fill-opacity:1;fill-rule:nonzero;stroke:none"
             d="M 0,0 V -4.139 H -13.628 V 22.617 H -9.49 V 0.32 C -9.49,0.106 -9.383,0 -9.168,0 Z" /></g><g
           transform="translate(372.4399,117.1084)"
           id="g352"><path
             id="path354"
             style="fill:#1b1464;fill-opacity:1;fill-rule:nonzero;stroke:none"
             d="M 0,0 C 0,-0.143 0.071,-0.214 0.214,-0.214 H 9.775 V -4.353 H -4.138 V 22.403 H 9.775 V 18.229 H 0.214 C 0.071,18.229 0,18.194 0,18.052 V 11.345 C 0,11.202 0.071,11.166 0.214,11.166 H 9.775 V 6.992 H 0.214 C 0.071,6.992 0,6.921 0,6.813 Z" /></g><g
           transform="translate(399.5225,118.8203)"
           id="g356"><path
             id="path358"
             style="fill:#1b1464;fill-opacity:1;fill-rule:nonzero;stroke:none"
             d="m 0,0 c 0.678,-1.284 1.784,-2.247 3.639,-2.247 1.855,0 3.496,1.677 3.496,3.531 0,2.605 -2.212,3.604 -4.174,4.424 -3.71,1.57 -6.6,3.211 -6.6,7.599 0,4.423 3.246,7.634 7.563,7.634 2.64,0 5.351,-1.498 6.457,-4.031 L 6.636,15.091 c -0.571,1.178 -1.82,1.677 -2.854,1.677 -1.748,0 -3.247,-1.57 -3.247,-3.247 0,-2.105 1.427,-2.783 3.14,-3.639 C 8.99,7.563 11.238,5.887 11.238,1.284 11.238,-2.961 7.813,-6.35 3.71,-6.35 H 3.567 c -3.71,0 -6.457,2.39 -7.17,5.208 C -2.39,-0.784 -1.213,-0.393 0,0" /></g><g
           transform="translate(428.3516,139.5117)"
           id="g360"><path
             id="path362"
             style="fill:#1b1464;fill-opacity:1;fill-rule:nonzero;stroke:none"
             d="M 0,0 H 4.139 V -26.756 H 0 v 11.095 c 0,0.142 -0.071,0.214 -0.214,0.214 h -9.739 c -0.179,0 -0.214,-0.107 -0.214,-0.214 v -11.095 h -4.139 V 0 h 4.139 v -11.059 c 0,-0.142 0.071,-0.213 0.214,-0.213 h 9.739 c 0.143,0 0.214,0.071 0.214,0.213 z" /></g><g
           transform="translate(449.4756,116.6084)"
           id="g364"><path
             id="path366"
             style="fill:#1b1464;fill-opacity:1;fill-rule:nonzero;stroke:none"
             d="m 0,0 c 5.244,0 9.489,4.281 9.489,9.525 0,5.245 -4.245,9.491 -9.489,9.491 -5.244,0 -9.525,-4.246 -9.525,-9.491 C -9.525,4.281 -5.244,0 0,0 m 0,23.189 c 7.562,0 13.663,-6.1 13.663,-13.664 C 13.663,1.963 7.562,-4.138 0,-4.138 c -7.563,0 -13.664,6.101 -13.664,13.663 0,7.564 6.101,13.664 13.664,13.664" /></g><g
           transform="translate(470.6016,127.6328)"
           id="g368"><path
             id="path370"
             style="fill:#1b1464;fill-opacity:1;fill-rule:nonzero;stroke:none"
             d="m 0,0 c 0,-0.144 0.071,-0.215 0.249,-0.215 h 2.212 c 3.282,0 4.067,2.498 4.067,4.068 0,1.569 -0.785,3.888 -4.067,3.888 H 0.249 C 0.071,7.741 0,7.634 0,7.456 Z m -4.174,11.879 h 7.099 c 4.566,0 7.777,-3.496 7.777,-8.026 0,-4.532 -3.211,-8.206 -7.777,-8.206 H 0.214 C 0.071,-4.353 0,-4.424 0,-4.566 v -10.311 h -4.174 z" /></g><g
           transform="translate(488.7637,127.6328)"
           id="g372"><path
             id="path374"
             style="fill:#1b1464;fill-opacity:1;fill-rule:nonzero;stroke:none"
             d="m 0,0 c 0,-0.144 0.071,-0.215 0.249,-0.215 h 2.212 c 3.282,0 4.067,2.498 4.067,4.068 0,1.569 -0.785,3.888 -4.067,3.888 H 0.249 C 0.071,7.741 0,7.634 0,7.456 Z m -4.174,11.879 h 7.099 c 4.566,0 7.777,-3.496 7.777,-8.026 0,-4.532 -3.211,-8.206 -7.777,-8.206 H 0.214 C 0.071,-4.353 0,-4.424 0,-4.566 v -10.311 h -4.174 z" /></g><path
           id="path376"
           style="fill:#1b1464;fill-opacity:1;fill-rule:nonzero;stroke:none"
           d="m 506.89,112.756 h -4.138 v 26.721 h 4.138 z" /><g
           transform="translate(514.7041,139.4766)"
           id="g378"><path
             id="path380"
             style="fill:#1b1464;fill-opacity:1;fill-rule:nonzero;stroke:none"
             d="m 0,0 c 3.746,-5.958 7.527,-11.916 11.273,-17.909 0.322,-0.499 0.643,-0.999 0.999,-1.463 V 0 h 4.174 V -26.721 H 12.059 L 0.856,-8.883 c -0.321,0.499 -0.713,0.963 -1.034,1.462 0,-0.678 -0.036,-1.391 -0.036,-2.14 v -17.16 h -4.139 l 0,26.721 z" /></g><g
           transform="translate(559.3379,117.8213)"
           id="g382"><path
             id="path384"
             style="fill:#1b1464;fill-opacity:1;fill-rule:nonzero;stroke:none"
             d="m 0,0 c -1.854,-2.818 -5.601,-5.351 -11.095,-5.351 -7.563,0 -13.663,6.101 -13.663,13.664 0,7.563 6.1,13.664 13.663,13.664 4.317,0 7.67,-2.035 9.169,-3.319 l -2.676,-3.175 c -1.605,1.356 -4.138,2.32 -6.493,2.32 -5.209,0 -9.489,-4.246 -9.489,-9.49 0,-5.245 4.28,-9.526 9.703,-9.526 3.069,0 5.494,1.178 6.636,2.641 v 3.496 c -0.499,0.035 -1.07,0.071 -1.641,0.071 h -6.315 V 9.062 L 0,9.062 Z" /></g></g></g></g></svg>