<?xml version="1.0" encoding="iso-8859-1"?>
<!-- Generator: Adobe Illustrator 19.0.0, SVG Export Plug-In . SVG Version: 6.00 Build 0)  -->
<svg version="1.1" id="Layer_1" xmlns="http://www.w3.org/2000/svg" xmlns:xlink="http://www.w3.org/1999/xlink" x="0px" y="0px"
	 viewBox="0 0 512 512" style="enable-background:new 0 0 512 512;" xml:space="preserve">
<path style="fill:#FB9D46;" d="M438.021,182.021c-4.41,0-7.983-3.573-7.983-7.983v-76.64c0-43.727-35.575-79.301-79.301-79.301
	s-79.301,35.575-79.301,79.301v76.64c0,4.41-3.573,7.983-7.983,7.983c-4.41,0-7.983-3.573-7.983-7.983v-76.64
	c0-52.531,42.738-95.268,95.268-95.268s95.268,42.738,95.268,95.268v76.64C446.004,178.448,442.431,182.021,438.021,182.021z"/>
<path style="fill:#FFD652;" d="M504.017,166.054H103.784c-4.41,0-7.983,3.573-7.983,7.983v327.85c0,4.41,3.573,7.983,7.983,7.983
	h400.233c4.41,0,7.983-3.573,7.983-7.983v-327.85C512,169.629,508.427,166.054,504.017,166.054z"/>
<path style="fill:#F7EDBC;" d="M504.017,166.054H382.67v335.834c0,4.409,3.574,7.983,7.983,7.983h113.364
	c4.409,0,7.983-3.574,7.983-7.983v-327.85C512,169.629,508.427,166.054,504.017,166.054z"/>
<g>
	<path style="fill:#FB9D46;" d="M390.653,509.871h113.364c4.409,0,7.983-3.574,7.983-7.983v-3.03l-57.766-59.37
		c-3.075-3.161-8.131-3.23-11.292-0.152l-60.273,58.687v3.866C382.67,506.297,386.244,509.871,390.653,509.871z"/>
	<path style="fill:#FB9D46;" d="M341.688,195.332V97.397c0-52.531-42.737-95.268-95.268-95.268s-95.268,42.738-95.268,95.268v97.934
		c-7.493,3.135-12.773,10.539-12.773,19.156c0,11.445,9.312,20.757,20.757,20.757s20.757-9.312,20.757-20.757
		c0-8.617-5.281-16.021-12.773-19.156V97.397c0-43.727,35.575-79.301,79.301-79.301s79.301,35.575,79.301,79.301v97.934
		c-7.493,3.135-12.773,10.539-12.773,19.156c0,11.445,9.312,20.757,20.757,20.757s20.757-9.312,20.757-20.757
		C354.462,205.87,349.182,198.467,341.688,195.332z M159.135,219.277c-2.641,0-4.79-2.149-4.79-4.79s2.149-4.79,4.79-4.79
		s4.79,2.149,4.79,4.79S161.777,219.277,159.135,219.277z M333.705,219.277c-2.641,0-4.79-2.149-4.79-4.79s2.149-4.79,4.79-4.79
		c2.641,0,4.79,2.149,4.79,4.79S336.347,219.277,333.705,219.277z"/>
</g>
<path style="fill:#FF7452;" d="M286.245,500.667L258.569,321.84c-0.604-3.892-3.952-6.762-7.891-6.762H35.659
	c-3.937,0-7.287,2.871-7.89,6.762L0.094,500.667c-0.357,2.303,0.312,4.647,1.829,6.417c1.517,1.769,3.731,2.788,6.061,2.788h270.37
	c2.33,0,4.545-1.019,6.061-2.788C285.931,505.314,286.6,502.97,286.245,500.667z"/>
<path style="fill:#E24642;" d="M35.659,315.077c-3.937,0-7.287,2.871-7.89,6.762L0.094,500.667
	c-0.357,2.303,0.312,4.647,1.829,6.417c1.517,1.769,3.731,2.788,6.061,2.788h129.498L49.997,315.077H35.659z"/>
<path style="fill:#FB9D46;" d="M154.878,367.235c4.41,0,7.983-3.573,7.983-7.983v-44.175h-15.967v44.175
	C146.894,363.662,150.469,367.235,154.878,367.235z"/>
<path style="fill:#FFD652;" d="M187.968,376.803l-27.676-25.547c-3.058-2.823-7.772-2.823-10.83,0l-27.676,25.547
	c-1.637,1.512-2.569,3.638-2.569,5.866v74.511c0,4.41,3.573,7.983,7.983,7.983h55.351c4.41,0,7.983-3.573,7.983-7.983V382.67
	C190.537,380.442,189.605,378.315,187.968,376.803z"/>
<path style="fill:#FB9D46;" d="M121.787,376.803c-1.637,1.512-2.569,3.638-2.569,5.866v74.511c0,4.41,3.573,7.983,7.983,7.983
	h14.548V358.377L121.787,376.803z"/>
<path style="fill:#C42725;" d="M210.229,362.977c-4.41,0-7.983-3.573-7.983-7.983v-36.191c0-31.989-26.024-58.012-58.012-58.012
	s-58.012,26.024-58.012,58.012v36.191c0,4.41-3.573,7.983-7.983,7.983c-4.41,0-7.983-3.573-7.983-7.983v-36.191
	c0-40.792,33.187-73.979,73.979-73.979s73.979,33.187,73.979,73.979v36.191C218.212,359.404,214.639,362.977,210.229,362.977z"/>
<g>
</g>
<g>
</g>
<g>
</g>
<g>
</g>
<g>
</g>
<g>
</g>
<g>
</g>
<g>
</g>
<g>
</g>
<g>
</g>
<g>
</g>
<g>
</g>
<g>
</g>
<g>
</g>
<g>
</g>
</svg>
